<svg width="746" height="584" fill="none" xmlns="http://www.w3.org/2000/svg"><path d="M177.193 224.196h486.912c3.602 0 7.057 1.433 9.604 3.985a13.616 13.616 0 013.978 9.62v320.616H163.65V237.788a13.62 13.62 0 013.969-9.598 13.566 13.566 0 019.574-3.994z" fill="#EDEDED" stroke="#1A1F22" stroke-linecap="round" stroke-linejoin="round"/><path d="M656.822 250.3H184.504v267.38h472.318V250.3z" stroke="#1A1F22" stroke-linecap="round" stroke-linejoin="round"/><path d="M598.47 542.315H245.205v17.429H598.47v-17.429z" fill="#1A1F22" stroke="#1A1F22" stroke-linecap="round" stroke-linejoin="round"/><path d="M598.47 550.717H245.205v9.041H598.47v-9.041z" fill="#EDEDED" stroke="#1A1F22" stroke-linecap="round" stroke-linejoin="round"/><path d="M122.075 570.084s5.804 7.115 23.216 12.916h553.133s12.893-3.226 18.697-12.265l-595.046-.651z" fill="#1A1F22" stroke="#1A1F22" stroke-linecap="round" stroke-linejoin="round"/><path d="M715.874 557.364H123.36a2.456 2.456 0 00-2.454 2.458v8.662a2.457 2.457 0 002.454 2.459h592.514a2.457 2.457 0 002.454-2.459v-8.662a2.456 2.456 0 00-2.454-2.458zm-290.81-323.061a4.532 4.532 0 00-2.78-4.192 4.522 4.522 0 00-5.914 5.908 4.516 4.516 0 004.176 2.798 4.51 4.51 0 003.19-1.322 4.528 4.528 0 001.328-3.192z" fill="#EDEDED" stroke="#1A1F22" stroke-linecap="round" stroke-linejoin="round"/><path d="M104.17 583h632.337" stroke="#1A1F22" stroke-linecap="round" stroke-linejoin="round"/><path d="M461.524 300.48a13.588 13.588 0 003.727-12.2l-8.505 8.506a2.594 2.594 0 01-3.636 0l-7.063-7.075a2.603 2.603 0 010-3.642l8.492-8.519a13.537 13.537 0 00-7.108.542 13.57 13.57 0 00-5.853 4.076 13.616 13.616 0 00-2.27 13.591l-21.944 21.474-2.116-2.12 3.454-3.46a.963.963 0 000-1.3l-2.675-2.667a.936.936 0 00-1.298 0l-1.299 1.301-2.895-2.888 1.116-1.118a1.3 1.3 0 000-1.782l-23.943-23.985a6.14 6.14 0 00-8.686 0l-2.441 2.446a6.152 6.152 0 000 8.701l23.943 23.985a1.301 1.301 0 001.779 0l1.103-1.119 2.896 2.901-1.299 1.3a.94.94 0 000 1.301l2.597 2.679a.958.958 0 001.299 0l3.453-3.46 2.078 2.082-18.178 17.78a13.535 13.535 0 00-13.576 2.264 13.587 13.587 0 00-4.602 12.993l8.505-8.507a2.595 2.595 0 013.635 0l7.064 7.076a2.606 2.606 0 010 3.642l-8.492 8.519a13.549 13.549 0 0012.96-4.619 13.603 13.603 0 002.27-13.59l18.179-17.767 24.8 24.842a5.104 5.104 0 001.142 5.437l5.986 5.996 7.18-7.192-5.985-5.996a5.086 5.086 0 00-5.428-1.145l-24.8-24.726 21.931-21.448a13.555 13.555 0 0014.503-3.109z" fill="#1C1C1C"/><path d="M521.278 412.976H314.152v12.369h207.126v-12.369z" fill="url(#paint0_linear)"/><path d="M395.162 412.976h-13.79l-7.076 12.369h13.802l7.064-12.369zm126.117 12.37v-11.161l-6.388 11.161h6.388zm-97.993-12.37h-13.803l-7.063 12.369h13.789l7.077-12.369zm-56.249 0h-13.789l-7.063 12.369h13.789l7.063-12.369zm-48.976 12.369h13.789l7.076-12.369h-13.802l-7.063 12.369zm189.584-12.369h-13.802l-7.064 12.369h13.79l7.076-12.369zm-56.248 0h-13.79l-7.063 12.369h13.789l7.064-12.369zm28.124 0h-13.789l-7.077 12.369h13.79l7.076-12.369z" fill="#1A1F22"/><path d="M220.043 439.171l-35.474 135.752h79.114L228.21 439.171a4.205 4.205 0 00-1.478-2.334 4.188 4.188 0 00-5.212 0 4.198 4.198 0 00-1.477 2.334z" fill="url(#paint1_linear)" stroke="#1A1F22" stroke-linecap="round" stroke-linejoin="round"/><path d="M184.569 574.923h64.468L216.796 451.58l-32.227 123.343z" fill="#1A1F22" stroke="#1A1F22" stroke-linecap="round" stroke-linejoin="round"/><path d="M271.668 571.931h-98.681a5.199 5.199 0 00-5.194 5.203v.664a5.199 5.199 0 005.194 5.203h98.681a5.198 5.198 0 005.193-5.203v-.664a5.198 5.198 0 00-5.193-5.203z" fill="url(#paint2_linear)" stroke="#1A1F22" stroke-linecap="round" stroke-linejoin="round"/><path d="M237.895 571.931h-64.908a5.199 5.199 0 00-5.194 5.203v.664a5.199 5.199 0 005.194 5.203h64.908a5.199 5.199 0 005.194-5.203v-.664a5.199 5.199 0 00-5.194-5.203z" fill="#1A1F22" stroke="#1A1F22" stroke-linecap="round" stroke-linejoin="round"/><path d="M198.722 520.763h50.807l-6.141-23.503h-38.525l-6.141 23.503z" fill="#fff" stroke="#1A1F22" stroke-linecap="round" stroke-linejoin="round"/><path d="M198.722 520.763h36.161l-6.142-23.503h-23.878l-6.141 23.503z" fill="#BABABA" stroke="#1A1F22" stroke-linecap="round" stroke-linejoin="round"/><path opacity=".3" d="M516.499 223.715l-45.64-75.297-100.862 1.106-44.952 74.191h191.454z" fill="#fff"/><path d="M324.5 224.196H177.219c-3.599 0-7.05 1.432-9.594 3.981a13.603 13.603 0 00-3.975 9.611v257.39L324.5 224.196zm192.311 0h147.281c3.598 0 7.05 1.432 9.594 3.981a13.602 13.602 0 013.974 9.611v257.39L516.811 224.196z" fill="#666" stroke="#1A1F22" stroke-miterlimit="10"/><path d="M428.887 154.471c4.447-4.455 4.447-11.678-.001-16.133-4.447-4.455-11.657-4.455-16.104 0-4.447 4.455-4.447 11.678 0 16.133 4.447 4.455 11.657 4.455 16.105 0z" fill="#fff" stroke="#1A1F22" stroke-linecap="round" stroke-linejoin="round"/><path d="M421.156 54.289V1" stroke="#0BCAFF" stroke-width="2" stroke-linecap="round" stroke-linejoin="round"/><path d="M421.156 89.485V54.289" stroke="#0BCAFF" stroke-width="2" stroke-miterlimit="10"/><path d="M403.523 89.485l-35.162 60.989h104.862l-35.149-60.99h-34.551z" fill="#ACFFB7" stroke="#1A1F22" stroke-width=".97" stroke-miterlimit="10"/><path d="M407.042 89.485l-27.981 60.989h83.463l-27.981-60.99h-27.501z" fill="#1A1F22" stroke="#1A1F22" stroke-linecap="round" stroke-linejoin="round"/><path d="M368.361 150.487L143.122 530.05M473.47 150.487l222.097 376.025m-511.063-65.801V250.3h123.922m224.109 0h124.273v211.464" stroke="#1A1F22" stroke-linecap="round" stroke-linejoin="round"/><path d="M378.889 393.984c-.133 1.836-.813 3.281-2.039 4.336-1.219 1.055-2.828 1.582-4.828 1.582-2.188 0-3.911-.734-5.168-2.203-1.25-1.477-1.875-3.5-1.875-6.07v-1.043c0-1.641.289-3.086.867-4.336.578-1.25 1.402-2.207 2.472-2.871 1.079-.672 2.329-1.008 3.75-1.008 1.969 0 3.555.527 4.758 1.582 1.203 1.054 1.899 2.535 2.086 4.441h-3.515c-.086-1.101-.395-1.898-.926-2.39-.524-.5-1.324-.75-2.403-.75-1.171 0-2.05.421-2.636 1.265-.578.836-.875 2.137-.891 3.903v1.289c0 1.843.277 3.191.832 4.043.563.851 1.445 1.277 2.649 1.277 1.085 0 1.894-.246 2.425-.738.539-.5.848-1.27.926-2.309h3.516zm13.329-4.277h-4.066v9.961h-3.399v-9.961h-3.996v-2.719h11.461v2.719zm13.845 3.738c0 1.953-.445 3.519-1.336 4.699-.883 1.172-2.078 1.758-3.586 1.758-1.281 0-2.316-.445-3.105-1.336v5.977h-3.387v-17.555h3.141l.117 1.242c.82-.984 1.89-1.476 3.211-1.476 1.562 0 2.777.578 3.644 1.734.868 1.156 1.301 2.75 1.301 4.781v.176zm-3.387-.246c0-1.18-.211-2.09-.632-2.731-.414-.64-1.02-.961-1.817-.961-1.062 0-1.793.407-2.191 1.219v5.192c.414.836 1.152 1.254 2.215 1.254 1.617 0 2.425-1.325 2.425-3.973zm13.564 6.469c-.156-.305-.269-.684-.34-1.137-.82.914-1.886 1.371-3.199 1.371-1.242 0-2.273-.359-3.094-1.078-.812-.719-1.218-1.625-1.218-2.719 0-1.344.496-2.375 1.488-3.094 1-.718 2.441-1.082 4.324-1.089h1.559v-.727c0-.586-.153-1.055-.457-1.406-.297-.352-.77-.528-1.418-.528-.571 0-1.02.137-1.348.411-.32.273-.48.648-.48 1.125h-3.387c0-.735.226-1.415.68-2.04.453-.625 1.093-1.113 1.921-1.464.829-.36 1.758-.539 2.789-.539 1.563 0 2.801.394 3.715 1.183.922.781 1.383 1.883 1.383 3.305v5.496c.008 1.203.176 2.113.504 2.73v.2h-3.422zm-2.801-2.356c.5 0 .961-.109 1.383-.328.422-.227.735-.527.938-.902v-2.18h-1.266c-1.695 0-2.598.586-2.707 1.758l-.012.199c0 .422.149.77.446 1.043.296.273.703.41 1.218.41zm20.033 2.356h-3.399v-4.875h-4.207v4.875h-3.386v-12.68h3.386v5.086h4.207v-5.086h3.399v12.68zm10.985-12.68h3.387v12.68h-3.387v-7.829l-4.242 7.829h-3.398v-12.68h3.398v7.816l4.242-7.816zm6.697 0h3.387v9.949h4.242v-9.949h3.398v9.973h1.899l-.235 6.468h-3.152v-3.761h-9.539v-12.68zm22.693 12.68c-.157-.305-.27-.684-.34-1.137-.82.914-1.887 1.371-3.199 1.371-1.243 0-2.274-.359-3.094-1.078-.813-.719-1.219-1.625-1.219-2.719 0-1.344.496-2.375 1.488-3.094 1-.718 2.442-1.082 4.325-1.089h1.558v-.727c0-.586-.152-1.055-.457-1.406-.297-.352-.769-.528-1.418-.528-.57 0-1.019.137-1.347.411-.321.273-.481.648-.481 1.125h-3.387c0-.735.227-1.415.68-2.04.453-.625 1.094-1.113 1.922-1.464.828-.36 1.758-.539 2.789-.539 1.563 0 2.801.394 3.715 1.183.922.781 1.383 1.883 1.383 3.305v5.496c.007 1.203.175 2.113.504 2.73v.2h-3.422zm-2.801-2.356c.5 0 .961-.109 1.383-.328.422-.227.734-.527.937-.902v-2.18h-1.265c-1.696 0-2.598.586-2.707 1.758l-.012.199c0 .422.148.77.445 1.043.297.273.703.41 1.219.41zm-138.819 61.35v-9.51h3.858c1.301 0 2.291.229 2.971.686.679.451 1.019 1.102 1.019 1.951 0 .44-.137.835-.413 1.187-.269.345-.671.612-1.204.8.621.128 1.113.389 1.477.782.363.392.545.855.545 1.388 0 .885-.329 1.559-.985 2.022-.65.463-1.588.694-2.812.694h-4.456zm2.135-4.052v2.365h2.338c1.096 0 1.644-.393 1.644-1.178 0-.791-.557-1.187-1.67-1.187h-2.312zm0-1.529h1.758c1.213 0 1.82-.357 1.82-1.072 0-.75-.575-1.137-1.723-1.16h-1.855v2.232zm16.357 4.052c.533 0 .975-.155 1.327-.466.352-.31.539-.694.562-1.151h2.013a3.154 3.154 0 01-.554 1.661c-.345.51-.814.914-1.406 1.213a4.188 4.188 0 01-1.916.448c-1.33 0-2.385-.431-3.164-1.292-.779-.861-1.169-2.051-1.169-3.568v-.22c0-1.447.387-2.605 1.16-3.472.774-.873 1.828-1.309 3.164-1.309 1.131 0 2.051.331 2.76.993.715.656 1.09 1.52 1.125 2.593h-2.013c-.023-.545-.21-.994-.562-1.345-.346-.352-.788-.527-1.327-.527-.692 0-1.225.252-1.6.755-.375.498-.565 1.257-.571 2.277v.343c0 1.031.184 1.801.554 2.311.375.504.914.756 1.617.756zm12.999-6.284h-3.085v7.813h-2.136v-7.813h-3.05v-1.697h8.271v1.697zm6.97 7.813c-.094-.181-.176-.477-.247-.887-.679.709-1.511 1.063-2.496 1.063-.955 0-1.734-.272-2.338-.817-.603-.545-.905-1.219-.905-2.022 0-1.014.375-1.79 1.125-2.329.756-.545 1.834-.817 3.235-.817h1.309v-.624c0-.493-.138-.885-.413-1.178-.275-.299-.694-.448-1.257-.448-.486 0-.885.123-1.195.369-.311.24-.466.548-.466.923h-2.136c0-.522.173-1.008.519-1.459.346-.457.814-.815 1.406-1.073.598-.257 1.263-.386 1.995-.386 1.114 0 2.001.281 2.663.843.662.557 1.002 1.342 1.02 2.356v4.289c0 .855.12 1.538.36 2.048v.149h-2.179zm-2.347-1.538c.422 0 .817-.102 1.186-.307.375-.206.657-.481.844-.827v-1.793h-1.151c-.791 0-1.386.138-1.784.413-.399.276-.598.666-.598 1.169 0 .411.135.739.404.985.276.24.642.36 1.099.36zm6.442-.167c.592-.662.988-1.289 1.187-1.881.205-.597.328-1.359.369-2.285l.123-3.639h6.601v7.805h1.318v4.535h-2.127v-2.83h-6.1v2.83h-2.162l.009-4.535h.782zm2.505 0h3.648v-5.968h-2.4l-.061 1.82c-.082 1.746-.478 3.129-1.187 4.148zm14.397-7.805h2.127v9.51h-2.127v-6.345l-3.727 6.345h-2.127v-9.51h2.127v6.346l3.727-6.346zm10.336 0h2.127v9.51h-2.127v-6.345l-3.727 6.345h-2.127v-9.51h2.127v6.346l3.727-6.346zm17.209 4.852c0 1.471-.334 2.646-1.002 3.524-.668.873-1.565 1.31-2.69 1.31-1.043 0-1.878-.343-2.505-1.028v4.508h-2.135v-13.166h1.968l.088.967c.627-.761 1.48-1.142 2.558-1.142 1.16 0 2.068.433 2.724 1.3.662.862.994 2.06.994 3.595v.132zm-2.127-.185c0-.949-.191-1.702-.572-2.258-.375-.557-.914-.835-1.617-.835-.873 0-1.5.36-1.881 1.081v4.219c.387.738 1.02 1.107 1.899 1.107.679 0 1.21-.273 1.591-.817.386-.551.58-1.383.58-2.497zm9.624 4.843c-.094-.181-.176-.477-.246-.887-.68.709-1.512 1.063-2.497 1.063-.955 0-1.734-.272-2.337-.817-.604-.545-.906-1.219-.906-2.022 0-1.014.375-1.79 1.125-2.329.756-.545 1.834-.817 3.235-.817h1.309v-.624c0-.493-.137-.885-.413-1.178-.275-.299-.694-.448-1.257-.448-.486 0-.884.123-1.195.369-.311.24-.466.548-.466.923h-2.136c0-.522.173-1.008.519-1.459.346-.457.814-.815 1.406-1.073.598-.257 1.263-.386 1.995-.386 1.114 0 2.001.281 2.663.843.663.557 1.002 1.342 1.02 2.356v4.289c0 .855.12 1.538.36 2.048v.149h-2.179zm-2.347-1.538c.422 0 .817-.102 1.186-.307.375-.206.657-.481.844-.827v-1.793h-1.151c-.791 0-1.386.138-1.784.413-.399.276-.598.666-.598 1.169 0 .411.135.739.404.985.276.24.642.36 1.099.36zm13.605-5.37c0 .422-.128.812-.386 1.169-.252.352-.61.633-1.073.844 1.09.381 1.635 1.116 1.635 2.206 0 .873-.354 1.57-1.063 2.092-.709.515-1.658.773-2.848.773a5.28 5.28 0 01-1.986-.36c-.598-.246-1.064-.592-1.398-1.037-.334-.452-.501-.985-.501-1.6h2.127c0 .387.173.712.519.976.346.257.782.386 1.309.386.522 0 .935-.12 1.24-.36.31-.246.465-.566.465-.958 0-.463-.134-.797-.404-1.002-.269-.205-.685-.308-1.248-.308h-1.529v-1.538h1.582c.955-.011 1.432-.404 1.432-1.178 0-.386-.137-.688-.413-.905-.275-.217-.653-.325-1.133-.325-.469 0-.865.117-1.187.352-.322.228-.483.518-.483.87h-2.127c0-.838.351-1.524 1.054-2.057.704-.539 1.597-.809 2.681-.809 1.178 0 2.095.241 2.751.721.656.481.984 1.163.984 2.048zm10.319 2.25c0 1.471-.334 2.646-1.002 3.524-.668.873-1.565 1.31-2.69 1.31-1.043 0-1.878-.343-2.505-1.028v4.508h-2.135v-13.166h1.968l.088.967c.627-.761 1.48-1.142 2.558-1.142 1.16 0 2.068.433 2.725 1.3.662.862.993 2.06.993 3.595v.132zm-2.127-.185c0-.949-.191-1.702-.571-2.258-.375-.557-.915-.835-1.618-.835-.873 0-1.5.36-1.881 1.081v4.219c.387.738 1.02 1.107 1.899 1.107.68 0 1.21-.273 1.591-.817.386-.551.58-1.383.58-2.497zm9.624 4.843c-.094-.181-.176-.477-.246-.887-.68.709-1.512 1.063-2.496 1.063-.955 0-1.735-.272-2.338-.817-.604-.545-.906-1.219-.906-2.022 0-1.014.375-1.79 1.125-2.329.756-.545 1.834-.817 3.235-.817h1.309v-.624c0-.493-.137-.885-.413-1.178-.275-.299-.694-.448-1.256-.448-.487 0-.885.123-1.196.369-.31.24-.466.548-.466.923h-2.135c0-.522.172-1.008.518-1.459.346-.457.815-.815 1.406-1.073.598-.257 1.263-.386 1.996-.386 1.113 0 2.001.281 2.663.843.662.557 1.002 1.342 1.019 2.356v4.289c0 .855.12 1.538.361 2.048v.149h-2.18zm-2.347-1.538c.422 0 .818-.102 1.187-.307a2.05 2.05 0 00.843-.827v-1.793h-1.151c-.791 0-1.386.138-1.784.413-.399.276-.598.666-.598 1.169 0 .411.135.739.405.985.275.24.641.36 1.098.36zm10.881-7.444c1.195 0 2.153.401 2.874 1.204.721.797 1.081 1.881 1.081 3.252v.105c0 1.371-.392 2.482-1.178 3.331-.779.85-1.839 1.275-3.181 1.275-1.307 0-2.362-.434-3.164-1.301-.803-.867-1.204-2.051-1.204-3.551v-.615c0-2.051.363-3.674 1.089-4.869.727-1.195 1.811-1.943 3.252-2.241.809-.164 1.33-.337 1.565-.519a.908.908 0 00.36-.756h1.723c0 .592-.097 1.073-.29 1.442a2.268 2.268 0 01-.888.905c-.398.228-1.084.445-2.057.65-.89.188-1.57.522-2.039 1.002-.463.481-.773 1.146-.931 1.995.849-.873 1.845-1.309 2.988-1.309zm-.422 1.714c-.691 0-1.233.234-1.626.703-.392.463-.589 1.178-.589 2.144 0 .914.194 1.626.58 2.136.387.51.938.765 1.653.765.709 0 1.257-.255 1.643-.765.393-.516.589-1.289.589-2.32 0-.821-.196-1.468-.589-1.943-.386-.48-.94-.72-1.661-.72zm5.652 2.425c0-.931.184-1.769.553-2.513.369-.75.888-1.324 1.556-1.723.668-.404 1.435-.606 2.303-.606 1.283 0 2.323.413 3.12 1.239.802.826 1.236 1.922 1.301 3.287l.008.501c0 .938-.181 1.775-.545 2.514a3.966 3.966 0 01-1.546 1.714c-.668.404-1.442.606-2.321.606-1.342 0-2.417-.445-3.225-1.336-.803-.896-1.204-2.089-1.204-3.577v-.106zm2.135.185c0 .979.202 1.746.607 2.303.404.551.966.826 1.687.826.721 0 1.28-.281 1.679-.844.404-.562.606-1.386.606-2.47 0-.96-.208-1.722-.624-2.285-.41-.562-.969-.843-1.678-.843-.698 0-1.251.278-1.662.835-.41.55-.615 1.376-.615 2.478zm15.733-3.155h-3.085v7.813h-2.136v-7.813h-3.05v-1.697h8.271v1.697zm4.807 4.052h-1.081v3.761h-2.136v-9.51h2.136v3.797h.941l2.628-3.797h2.636l-3.436 4.553 3.726 4.957h-2.777l-2.637-3.761zm12.525-5.749h2.127v9.51h-2.127v-6.345l-3.727 6.345h-2.127v-9.51h2.127v6.346l3.727-6.346z" fill="#1C1C1C"/><g clip-path="url(#clip0)"><path fill-rule="evenodd" clip-rule="evenodd" d="M616.281 289.23l-33.948-64.269 33.948-64.275 33.949 64.275 94.916 179.71h-67.897L616.281 289.23z" fill="url(#paint3_linear)"/></g><path clip-rule="evenodd" d="M114.017 320.672h102.736L103.882 494.658H1.146l112.871-173.986z" stroke="#fff" stroke-miterlimit="10"/><defs><linearGradient id="paint0_linear" x1="314.152" y1="422.695" x2="528.069" y2="422.695" gradientUnits="userSpaceOnUse"><stop stop-color="#ACFFB7"/><stop offset=".521" stop-color="#0BCAFF"/><stop offset="1" stop-color="#1F93FF"/></linearGradient><linearGradient id="paint1_linear" x1="184.569" y1="545.138" x2="266.277" y2="545.138" gradientUnits="userSpaceOnUse"><stop stop-color="#ACFFB7"/><stop offset=".521" stop-color="#0BCAFF"/><stop offset="1" stop-color="#1F93FF"/></linearGradient><linearGradient id="paint2_linear" x1="167.793" y1="580.629" x2="280.437" y2="580.629" gradientUnits="userSpaceOnUse"><stop stop-color="#ACFFB7"/><stop offset=".521" stop-color="#0BCAFF"/><stop offset="1" stop-color="#1F93FF"/></linearGradient><linearGradient id="paint3_linear" x1="582.333" y1="282.678" x2="745.146" y2="282.678" gradientUnits="userSpaceOnUse"><stop stop-color="#ACFFB7"/><stop offset=".5" stop-color="#0BCAFF"/><stop offset="1" stop-color="#1F93FF"/></linearGradient><clipPath id="clip0"><path fill="#fff" transform="translate(582.333 160.686)" d="M0 0h162.813v243.98H0z"/></clipPath></defs></svg>