<svg width="302" height="208" fill="none" xmlns="http://www.w3.org/2000/svg"><path d="M282.737 167.719H301V1H1v205.999h261.029l20.708-39.28zM290.723 207H301v-19.544L290.723 207z" stroke="#fff" stroke-miterlimit="10"/><path d="M235.034 97.085a31.5 31.5 0 00-8.891-22.858 31.505 31.505 0 00-22.591-9.55 31.491 31.491 0 00-29.353 20.078 31.5 31.5 0 00-2.129 12.33c0 17.374 31.469 66.639 31.469 66.639s31.495-49.265 31.495-66.64z" stroke="#fff" stroke-miterlimit="10"/><path d="M215.837 95.815a12.29 12.29 0 01-7.572 11.38 12.3 12.3 0 01-16.783-8.944 12.302 12.302 0 015.224-12.632 12.3 12.3 0 0115.521 1.518 12.297 12.297 0 013.61 8.678zM120 62.786a23.007 23.007 0 10-45.987 0c0 12.694 22.98 48.684 22.98 48.684S120 75.48 120 62.786z" stroke="#fff" stroke-miterlimit="10"/><path d="M106.066 61.834a8.965 8.965 0 11-17.93 0 8.965 8.965 0 0117.93 0v0zm10.893 46.463c13.381.264 23.8 0 31.442 0 15.444 0 20.283 4.258 18.934 14.068-.925 6.797-20.335 7.722-40.539 7.934-25.069 0-52.28 1.692-52.28 19.04 0 16.527 20.864 15.866 53.973 16.184 21.34.211 35.858-1.138 65.687-1.666" stroke="#fff" stroke-miterlimit="10"/></svg>