<svg width="302" height="208" fill="none" xmlns="http://www.w3.org/2000/svg"><path d="M282.737 167.719H301V1H1v205.999h261.029l20.708-39.28zM290.723 207H301v-19.544L290.723 207z" stroke="#fff" stroke-miterlimit="10"/><path d="M150.987 103.988H68.85v82.137h82.137v-82.137z" stroke="#fff" stroke-width="1.5" stroke-miterlimit="10"/><path d="M109.92 103.988v-41.07h82.138v82.139h-41.069" stroke="#fff" stroke-width="1.5" stroke-miterlimit="10"/><path d="M150.987 62.919V21.85h82.163v82.138h-41.094m-95.161 57.323v-34.877l29.871 17.439-29.87 17.438zm25.406-78.931h32.214m-32.633 13.073h57.965m-27.701 23.63h27.7m-27.7 11.815h27.7m-27.7-23.63h27.7" stroke="#fff" stroke-width="1.5" stroke-miterlimit="10"/><path d="M167.983 62.919l11.1-15.984 10.039 15.984" stroke="#fff" stroke-width="1.5" stroke-miterlimit="10"/><path d="M185.249 56.752l13.764-18.376 26.392 36.012h-33.348m-22.742-34.211a3.9 3.9 0 01-4.658 3.822 3.896 3.896 0 01.761-7.72 3.895 3.895 0 013.897 3.898v0z" stroke="#fff" stroke-width="1.5" stroke-miterlimit="10"/></svg>