<svg width="302" height="208" fill="none" xmlns="http://www.w3.org/2000/svg"><path d="M165.197 167.058a16.283 16.283 0 01-4.082-10.804 16.331 16.331 0 0116.319-16.338 16.327 16.327 0 0111.547 4.778 16.35 16.35 0 014.79 11.548 16.295 16.295 0 01-4.082 10.804v23.909a2.066 2.066 0 01-1.043 1.765 2.056 2.056 0 01-2.048-.011l-9.164-5.484-9.155 5.497a2.067 2.067 0 01-2.049.01 2.064 2.064 0 01-1.042-1.764v-23.91h.009z" stroke="#fff" stroke-miterlimit="10"/><path d="M177.442 164.287c4.675 0 8.465-3.792 8.465-8.469 0-4.678-3.79-8.47-8.465-8.47-4.674 0-8.464 3.792-8.464 8.47 0 4.677 3.79 8.469 8.464 8.469z" stroke="#fff" stroke-miterlimit="10"/><path d="M198.338 176.022H208V26H94v150.022h61.831M110.423 51.606h80.66m-80.66 15.803h80.66m-80.66 15.802h80.66m-80.66 15.803h80.66m-80.66 15.798h35.569" stroke="#fff" stroke-miterlimit="10"/><path d="M282.737 167.719H301V1H1v205.999h261.029l20.708-39.28zM290.722 207H301v-19.544L290.722 207z" stroke="#fff" stroke-miterlimit="10"/></svg>