<svg width="302" height="208" fill="none" xmlns="http://www.w3.org/2000/svg"><path d="M282.737 167.719H301V1H1v205.999h261.029l20.708-39.28zM290.723 207H301v-19.544L290.723 207z" stroke="#fff" stroke-miterlimit="10"/><path d="M195.637 94.227a44.166 44.166 0 10-71.333 35.845 38.198 38.198 0 014.737 11.599v0c0 .614.205 1.203.282 1.792a4.171 4.171 0 003.943 3.636h37.1a4.405 4.405 0 004.583-3.636v0a38.72 38.72 0 016.606-16.105 44.381 44.381 0 007.962-9.908v0a44.168 44.168 0 006.12-23.223v0z" stroke="#fff" stroke-miterlimit="10"/><path d="M173.642 156.649h-44.321v6.913h44.321v-6.913zm-6.938 16.438h-30.469V180h30.469v-6.913z" stroke="#fff" stroke-linejoin="round"/><path d="M105.51 38.487l14.287 12.52m77.194-12.52l-14.312 12.52M152.828 21v20.714M87 66.267l20.534 6.632m108.407-6.632L195.406 72.9" stroke="#fff" stroke-miterlimit="10"/></svg>