<svg width="19" height="19" fill="none" xmlns="http://www.w3.org/2000/svg"><path d="M9.002 18.041c-2.46 0-2.75-.013-3.71-.055a6.584 6.584 0 01-2.185-.45 4.619 4.619 0 01-2.63-2.63 6.59 6.59 0 01-.419-2.188C.002 11.76.002 11.446.002 9.005c0-2.467.013-2.755.056-3.71a6.59 6.59 0 01.419-2.184A4.61 4.61 0 013.11.48 6.533 6.533 0 015.294.06C6.249.005 6.563.005 9.002.005c2.48 0 2.765.013 3.71.054.749.014 1.49.156 2.19.42a4.615 4.615 0 012.633 2.632c.267.71.41 1.46.421 2.217.056.958.056 1.271.056 3.711s-.014 2.76-.056 3.707a6.6 6.6 0 01-.42 2.19 4.624 4.624 0 01-2.634 2.631 6.61 6.61 0 01-2.186.42c-.955.054-1.268.054-3.714.054zM8.968 1.588c-2.446 0-2.7.012-3.655.055a4.989 4.989 0 00-1.669.311 2.989 2.989 0 00-1.719 1.712c-.2.54-.305 1.111-.311 1.687-.053.97-.053 1.223-.053 3.652 0 2.4.009 2.691.053 3.654.009.57.114 1.135.311 1.67.306.788.93 1.41 1.719 1.711a4.92 4.92 0 001.669.311c.968.056 1.223.056 3.655.056 2.453 0 2.707-.012 3.654-.056a4.961 4.961 0 001.67-.31 3 3 0 001.71-1.71c.2-.54.305-1.112.311-1.688h.011c.043-.956.043-1.21.043-3.654 0-2.443-.011-2.7-.054-3.655a5.057 5.057 0 00-.311-1.668 3 3 0 00-1.71-1.712 4.91 4.91 0 00-1.67-.31c-.967-.056-1.22-.056-3.654-.056zm.034 12.036a4.623 4.623 0 11-.006-9.246 4.623 4.623 0 01.006 9.246zm0-7.626a3 3 0 103 3 3.007 3.007 0 00-3-3zm4.8-.713a1.078 1.078 0 11.008-2.156 1.078 1.078 0 01-.008 2.156z" fill="#1C1C1C"/></svg>