<svg width="177" height="39" fill="none" xmlns="http://www.w3.org/2000/svg"><g clip-path="url(#clip0)"><path d="M51.175 5.244h-2.548l-.572 1.57h-.813L49.565.8h.702l2.326 6.016h-.813l-.605-1.571zm-2.304-.652h2.066L49.9 1.777l-1.03 2.815zm6.216 1.681c.134 0 .267-.021.393-.064a1.1 1.1 0 00.334-.183.88.88 0 00.342-.611h.729a1.31 1.31 0 01-.166.569 1.639 1.639 0 01-.39.474 1.923 1.923 0 01-1.242.448 2.033 2.033 0 01-.886-.18 1.816 1.816 0 01-.629-.485 2.033 2.033 0 01-.374-.71 2.952 2.952 0 01-.122-.856v-.174a2.98 2.98 0 01.122-.855c.076-.26.203-.5.374-.71a1.8 1.8 0 01.626-.486c.278-.125.581-.187.887-.18.246-.003.49.039.72.124.207.077.397.192.56.34.157.145.283.32.37.515.09.203.14.42.15.64h-.73a1.193 1.193 0 00-.1-.385 1.02 1.02 0 00-.548-.528 1.109 1.109 0 00-.422-.078 1.073 1.073 0 00-.976.51 1.603 1.603 0 00-.203.517c-.038.19-.057.383-.057.576v.174c0 .196.019.392.057.585.036.181.104.356.2.514.096.152.227.278.382.368.184.096.391.142.6.131zm4.482 0a1.122 1.122 0 00.724-.247.965.965 0 00.235-.268.833.833 0 00.106-.343h.732c-.013.2-.069.393-.166.568-.1.18-.232.341-.39.475-.168.14-.359.25-.564.327a1.897 1.897 0 01-.677.12 2.047 2.047 0 01-.89-.179 1.816 1.816 0 01-.628-.485 2.137 2.137 0 01-.374-.71 2.952 2.952 0 01-.122-.856v-.174c-.002-.29.04-.577.122-.855a2.1 2.1 0 01.374-.71c.17-.207.385-.373.629-.486.276-.126.579-.187.883-.18.246-.003.49.038.721.124.208.077.398.192.561.34.157.145.283.32.369.515.09.202.142.42.152.64h-.732a1.129 1.129 0 00-.098-.385.993.993 0 00-.22-.314 1.049 1.049 0 00-.327-.214 1.276 1.276 0 00-1.02.061 1.141 1.141 0 00-.382.37c-.097.16-.165.335-.2.518-.04.19-.06.382-.06.576v.174c0 .197.02.392.06.585.035.182.103.356.2.514a1.1 1.1 0 00.38.368c.185.097.393.142.602.131zm2.461-1.734a2.7 2.7 0 01.143-.904 2.17 2.17 0 01.41-.72c.177-.205.397-.368.645-.48.267-.119.558-.177.85-.172a2.07 2.07 0 01.865.171c.249.112.47.276.648.48.183.212.322.457.41.721.097.292.146.597.143.904v.09c.002.308-.046.613-.144.904a2.114 2.114 0 01-.409.719 1.895 1.895 0 01-.645.474c-.27.118-.564.177-.86.172a2.03 2.03 0 01-.853-.172 1.88 1.88 0 01-.648-.474 2.12 2.12 0 01-.412-.719 2.711 2.711 0 01-.144-.903v-.091zm.775.09a2.37 2.37 0 00.081.633c.047.187.128.364.239.523.105.147.242.27.4.357a1.264 1.264 0 001.123 0c.16-.086.297-.209.401-.357a1.66 1.66 0 00.241-.523c.056-.206.083-.419.082-.632v-.091a2.39 2.39 0 00-.082-.63 1.6 1.6 0 00-.244-.537 1.143 1.143 0 00-.968-.493 1.126 1.126 0 00-.541.134 1.24 1.24 0 00-.399.36 1.599 1.599 0 00-.238.536 2.385 2.385 0 00-.082.63l-.013.09zm4.375-2.286h.778V6.19h2.079V2.343h.775V6.19h.542l-.073 1.952h-.694v-1.34H67.18v-4.46zm7.926 0h.773v4.472h-.773v-3.26l-2.084 3.26h-.784V2.343h.773v3.265l2.095-3.265zm4.806 4.472a.705.705 0 01-.067-.21 3.288 3.288 0 01-.044-.268c-.074.08-.156.151-.244.215a1.724 1.724 0 01-1.04.34 1.787 1.787 0 01-.63-.104 1.439 1.439 0 01-.482-.268 1.309 1.309 0 01-.306-.421 1.228 1.228 0 01-.109-.518 1.275 1.275 0 01.55-1.096 1.91 1.91 0 01.64-.268c.273-.069.554-.103.835-.102h.77v-.351a.843.843 0 00-.244-.638.973.973 0 00-.713-.239c-.135 0-.27.02-.398.06a.993.993 0 00-.306.155.71.71 0 00-.198.225.532.532 0 00-.07.268h-.779a.988.988 0 01.128-.475c.09-.164.212-.308.36-.423a1.91 1.91 0 01.567-.306c.238-.082.49-.122.742-.118.23-.002.458.028.678.091.198.05.383.142.542.269.15.129.268.289.347.469.088.208.13.431.125.656v2.078c0 .16.014.32.04.477.02.15.06.296.12.435v.064l-.814.003zm-1.284-.582a1.25 1.25 0 00.393-.06 1.47 1.47 0 00.607-.361 1.12 1.12 0 00.173-.25v-.91h-.645c-.353-.02-.704.05-1.022.203a.673.673 0 00-.36.62.86.86 0 00.054.3.654.654 0 00.165.24c.078.073.17.127.271.162.117.04.24.058.364.056zm3.214-3.89h.775V6.19h2.09V2.343h.772V6.19h.542l-.076 1.952h-.696v-1.34h-3.407v-4.46zm7.923 0h.775v4.472h-.775v-3.26l-2.076 3.26h-.773V2.343h.773v3.265l2.076-3.265zm5.471 0v4.472h-.77v-1.74h-1.165l-1.066 1.74H91.4l1.136-1.856a1.354 1.354 0 01-.667-.485 1.382 1.382 0 01-.116-1.31c.079-.167.193-.314.336-.432.16-.128.345-.225.542-.284.236-.073.482-.109.73-.105h1.875zm-2.827 1.373a.82.82 0 00.046.268.634.634 0 00.152.233c.077.074.17.13.27.166.124.046.254.068.386.064h1.203V2.965h-1.111a1.273 1.273 0 00-.429.064.918.918 0 00-.29.172.653.653 0 00-.165.241.703.703 0 00-.062.274zm5.981.823a2.703 2.703 0 01.144-.904 2.19 2.19 0 01.41-.721 1.91 1.91 0 01.645-.48 2.04 2.04 0 01.854-.171c.296-.006.59.053.862.171.248.112.469.276.647.48.184.212.324.457.412.721.096.292.143.597.141.904v.09a2.83 2.83 0 01-.141.904 2.103 2.103 0 01-.412.719 1.891 1.891 0 01-.645.474 2.22 2.22 0 01-1.713 0 1.88 1.88 0 01-.647-.474 2.12 2.12 0 01-.413-.719 2.714 2.714 0 01-.143-.903v-.091zm.776.09a2.41 2.41 0 00.081.633 1.6 1.6 0 00.239.523c.105.147.242.27.401.357a1.261 1.261 0 001.122 0c.16-.087.298-.209.401-.357.111-.159.192-.336.242-.523.055-.206.082-.419.081-.632v-.091a2.393 2.393 0 00-.081-.63 1.612 1.612 0 00-.244-.537 1.206 1.206 0 00-.401-.359 1.164 1.164 0 00-.564-.134 1.113 1.113 0 00-.542.134c-.16.089-.297.212-.402.36a1.6 1.6 0 00-.238.536 2.39 2.39 0 00-.081.63l-.014.09zm8.005 2.186h-.781v-3.84h-2.079v3.84h-.778V2.343h3.632l.006 4.472zm3.115.083a2.19 2.19 0 01-.854-.161 1.922 1.922 0 01-.653-.448 1.994 1.994 0 01-.417-.684 2.49 2.49 0 01-.147-.868v-.174a2.707 2.707 0 01.166-.976c.098-.266.247-.51.439-.721a1.849 1.849 0 011.371-.603c.288-.008.573.049.835.166.228.106.426.264.58.46.157.208.272.444.336.695.074.285.11.578.109.871V4.8h-3.063c.004.197.039.392.103.579a1.4 1.4 0 00.271.466 1.268 1.268 0 00.962.429c.242.008.482-.049.694-.164.192-.113.361-.263.496-.44l.472.365a2.04 2.04 0 01-.271.32 1.945 1.945 0 01-.835.461 2.33 2.33 0 01-.594.083zm-.1-4.008a1.072 1.072 0 00-.781.33 1.3 1.3 0 00-.257.402 2.08 2.08 0 00-.141.55h2.263v-.057a2.073 2.073 0 00-.073-.442 1.173 1.173 0 00-.19-.392.952.952 0 00-.328-.268 1.025 1.025 0 00-.493-.123zm6.574 1.74a3.34 3.34 0 01-.116.906 2.234 2.234 0 01-.339.718 1.54 1.54 0 01-1.293.644 1.947 1.947 0 01-.748-.132 1.505 1.505 0 01-.542-.386v2.145h-.773V2.343h.705l.038.496c.149-.183.339-.33.556-.429.238-.103.496-.153.756-.147.261-.006.519.05.753.163.216.111.401.271.542.467.16.215.276.459.342.718.079.304.117.617.114.93l.005.089zm-.772-.089c0-.212-.023-.423-.071-.63a1.537 1.537 0 00-.222-.517 1.098 1.098 0 00-.38-.354 1.093 1.093 0 00-.542-.129 1.254 1.254 0 00-.357.046c-.103.028-.2.07-.29.126a1.082 1.082 0 00-.231.198 1.436 1.436 0 00-.173.244V5.67c.049.088.107.17.173.246a1.051 1.051 0 00.523.32c.119.032.241.047.364.045.189.005.376-.04.542-.131.151-.089.28-.21.376-.357.107-.159.182-.336.223-.523.047-.207.071-.42.07-.632l-.005-.097zm4.547 2.274a.907.907 0 01-.068-.21 3.515 3.515 0 01-.041-.268c-.075.078-.157.15-.244.215-.3.224-.667.344-1.043.34a1.81 1.81 0 01-.629-.104 1.45 1.45 0 01-.48-.268 1.278 1.278 0 01-.306-.421 1.23 1.23 0 01-.108-.518 1.36 1.36 0 01.141-.635c.096-.184.235-.342.406-.461a1.95 1.95 0 01.642-.268c.275-.067.558-.1.841-.097h.767v-.35a.841.841 0 00-.241-.639.975.975 0 00-.713-.238 1.316 1.316 0 00-.399.059.996.996 0 00-.306.155.677.677 0 00-.198.225.528.528 0 00-.073.268h-.775a.95.95 0 01.127-.474c.09-.164.212-.308.361-.424a1.89 1.89 0 01.566-.305c.238-.082.488-.122.74-.118.23-.003.459.028.68.09.198.05.383.142.543.269.151.127.269.288.346.469.089.208.132.431.128.657V5.84c.001.16.014.32.038.478.022.148.062.294.119.434v.064l-.821-.002zm-1.282-.582a1.25 1.25 0 00.393-.06 1.443 1.443 0 00.604-.361 1.02 1.02 0 00.171-.25v-.91h-.642c-.353-.02-.705.05-1.022.203a.662.662 0 00-.361.62.86.86 0 00.054.3.62.62 0 00.166.24c.078.073.17.127.271.162.117.04.241.058.366.056zm6.437-3.268h-1.515v3.85h-.773v-3.85h-1.488v-.622h3.776v.622zm.371 1.574a2.697 2.697 0 01.146-.904c.088-.264.227-.51.409-.721a1.901 1.901 0 011.497-.651c.296-.006.59.053.861.171.25.112.472.276.651.48.182.212.321.457.409.721.098.291.146.597.144.904v.09c.002.308-.046.613-.144.904a2.098 2.098 0 01-.409.719 1.89 1.89 0 01-.648.474 2.22 2.22 0 01-1.713 0 1.936 1.936 0 01-.648-.474 2.177 2.177 0 01-.409-.719c-.1-.29-.149-.596-.146-.903v-.091zm.778.09a2.5 2.5 0 00.078.633c.048.188.13.365.241.523a1.137 1.137 0 00.963.488c.195.004.388-.04.561-.131.159-.087.297-.21.401-.357.109-.16.19-.336.238-.523.056-.206.083-.419.082-.632v-.091a2.394 2.394 0 00-.082-.63 1.637 1.637 0 00-.241-.537 1.15 1.15 0 00-.967-.493 1.13 1.13 0 00-.543.134c-.157.09-.293.212-.398.36a1.59 1.59 0 00-.241.536 2.526 2.526 0 00-.079.63l-.013.09zm8.126.001c.002.306-.037.61-.116.906a2.21 2.21 0 01-.342.718 1.545 1.545 0 01-1.293.643 1.932 1.932 0 01-.745-.13 1.52 1.52 0 01-.542-.387v2.145h-.773V2.343h.708l.035.496c.146-.181.331-.328.542-.429.238-.102.496-.153.756-.147.262-.006.521.05.757.163.214.113.399.272.542.467.157.216.272.46.338.718.082.303.121.616.117.93l.016.089zm-.772-.089c0-.212-.023-.423-.071-.63a1.586 1.586 0 00-.222-.517 1.136 1.136 0 00-.379-.354 1.112 1.112 0 00-.543-.129 1.227 1.227 0 00-.357.046 1.034 1.034 0 00-.521.324 1.448 1.448 0 00-.176.244V5.67c.05.088.109.17.176.247a1.052 1.052 0 00.523.319c.119.032.241.048.364.045.189.006.376-.04.542-.131.152-.089.282-.21.379-.357a1.57 1.57 0 00.222-.523 2.75 2.75 0 00.071-.632l-.008-.097zm1.549-.002a2.721 2.721 0 01.144-.904c.089-.264.228-.509.409-.72a1.901 1.901 0 011.497-.652c.297-.006.592.053.864.171.249.112.47.276.648.48.182.212.321.457.409.721.098.292.146.597.144.904v.09c.002.308-.046.613-.144.904a2.098 2.098 0 01-.409.719 1.89 1.89 0 01-.648.474 2.213 2.213 0 01-1.71 0 1.884 1.884 0 01-.648-.474 2.136 2.136 0 01-.412-.719 2.722 2.722 0 01-.144-.903v-.091zm.776.09a2.37 2.37 0 00.081.633c.047.187.128.364.238.523.105.147.243.27.402.357a1.262 1.262 0 001.122 0c.16-.086.297-.209.401-.357a1.66 1.66 0 00.241-.523c.055-.206.083-.419.081-.632v-.091a2.352 2.352 0 00-.081-.63 1.593 1.593 0 00-.244-.537 1.15 1.15 0 00-.967-.493 1.127 1.127 0 00-.556.134 1.24 1.24 0 00-.399.36 1.606 1.606 0 00-.238.536 2.393 2.393 0 00-.081.63v.09zm4.38 2.186V2.343h1.762c.261-.002.522.024.778.075a1.9 1.9 0 01.588.225c.155.094.283.226.372.384.089.164.133.349.13.536a.916.916 0 01-.187.56c-.14.176-.328.31-.542.383.135.03.265.08.385.15.108.064.205.144.287.24a.88.88 0 01.173.3 1.2 1.2 0 01-.062.898 1.03 1.03 0 01-.347.394 1.583 1.583 0 01-.542.238 3.035 3.035 0 01-.729.08l-2.066.009zm.773-2.574h.997c.723 0 1.085-.21 1.085-.627 0-.435-.366-.649-1.085-.649h-.989l-.008 1.276zm0 .611v1.34h1.277c.255.018.509-.045.726-.179a.58.58 0 00.239-.499.586.586 0 00-.056-.276.58.58 0 00-.183-.217 1.226 1.226 0 00-.726-.177l-1.277.008zm-91.052 7.646h.775v4.485h-.775v-3.274l-2.085 3.274h-.772v-4.485h.772v3.265l2.085-3.265zm5.709 4.485h-.773v-1.909H53.48v1.909h-.778v-4.485h.778v1.938h2.076v-1.938h.773v4.485zm1.072-2.166c-.002-.326.033-.65.104-.968.059-.269.164-.525.311-.759.13-.204.306-.374.515-.496.217-.121.464-.182.713-.177.213-.005.425.035.62.118v-1.911h.773v1.938c.1-.048.204-.085.312-.11.124-.022.25-.03.377-.027.25-.005.497.056.715.177.21.122.386.293.515.496.147.234.253.49.312.759.072.318.107.642.103.968v.086a3.35 3.35 0 01-.106.868 2.056 2.056 0 01-.311.681 1.448 1.448 0 01-.513.445c-.219.11-.462.164-.707.158a1.66 1.66 0 01-.694-.131v1.764h-.773v-1.75a1.527 1.527 0 01-.631.117 1.439 1.439 0 01-1.212-.603 2.006 2.006 0 01-.314-.681 3.348 3.348 0 01-.106-.868l-.002-.094zm.773.085c0 .2.017.401.054.598.03.171.09.336.18.486a.93.93 0 00.327.326.93.93 0 00.493.135 1.197 1.197 0 00.44-.075v-3.244a.882.882 0 00-.19-.051c-.08-.014-.16-.02-.241-.019a.861.861 0 00-.5.142c-.139.1-.251.231-.327.384-.09.178-.15.369-.18.565a4.21 4.21 0 00-.053.681l-.003.072zm3.822-.085a3.65 3.65 0 00-.06-.681 1.912 1.912 0 00-.195-.566 1.101 1.101 0 00-.342-.383.88.88 0 00-.5-.142 1.51 1.51 0 00-.272.021 1.031 1.031 0 00-.2.062v3.235c.066.023.135.04.206.051.09.013.18.02.27.02a.944.944 0 00.838-.449c.093-.149.158-.313.192-.485a2.78 2.78 0 00.06-.598l.003-.085zm1.57-.124a2.773 2.773 0 01.143-.903c.089-.264.228-.509.41-.721.177-.205.397-.368.645-.48a2.23 2.23 0 011.715 0c.25.112.472.275.65.48.183.212.322.457.41.72.097.292.145.598.141.904v.091c.003.307-.044.612-.14.904a2.161 2.161 0 01-.41.718c-.18.202-.4.364-.648.475a2.223 2.223 0 01-1.713 0 1.897 1.897 0 01-.648-.475 2.119 2.119 0 01-.412-.718 2.786 2.786 0 01-.143-.904v-.09zm.778.091c-.003.214.024.427.078.633a1.6 1.6 0 00.239.523c.105.147.242.269.4.357.174.09.368.136.564.13a1.137 1.137 0 00.96-.487c.11-.16.192-.336.241-.523a2.37 2.37 0 00.082-.633v-.09a2.385 2.385 0 00-.082-.63 1.6 1.6 0 00-.244-.537 1.194 1.194 0 00-.4-.359 1.16 1.16 0 00-.565-.134 1.12 1.12 0 00-.555.134c-.16.089-.297.211-.401.36a1.599 1.599 0 00-.239.535 2.44 2.44 0 00-.079.63v.091zm8.124 0a3.31 3.31 0 01-.116.907 2.157 2.157 0 01-.34.718 1.529 1.529 0 01-1.292.643 2 2 0 01-.748-.13 1.511 1.511 0 01-.542-.387v2.145h-.773v-6.182h.705l.038.496c.15-.183.34-.33.556-.43.238-.102.496-.153.756-.147.26-.006.52.05.753.164.216.111.401.27.543.466.16.216.275.46.341.719.079.304.117.616.114.93l.005.088zm-.772-.088a2.631 2.631 0 00-.07-.63 1.545 1.545 0 00-.223-.517 1.045 1.045 0 00-.927-.483 1.257 1.257 0 00-.358.046 1.006 1.006 0 00-.518.324 1.308 1.308 0 00-.176.244v2.145c.05.088.108.171.177.246.065.076.142.14.227.193.091.056.19.099.293.126.118.033.24.048.363.046.19.005.377-.04.542-.131a1.14 1.14 0 00.377-.357 1.53 1.53 0 00.222-.523c.05-.207.073-.42.07-.633v-.096zm4.358 1.26l1.537-3.458h.965v4.485h-.772v-3.265l-1.464 3.265h-.542l-1.49-3.322v3.322h-.773v-4.485h1.003l1.536 3.458zm6.534 1.027a.8.8 0 01-.065-.21 3.29 3.29 0 01-.043-.267 1.78 1.78 0 01-.244.214 1.724 1.724 0 01-1.04.34 1.786 1.786 0 01-.63-.104 1.437 1.437 0 01-.482-.268 1.309 1.309 0 01-.306-.421 1.228 1.228 0 01-.109-.517 1.4 1.4 0 01.141-.636c.097-.184.238-.342.41-.46.194-.132.41-.227.64-.282a3.48 3.48 0 01.84-.094h.77v-.351a.842.842 0 00-.245-.638.974.974 0 00-.713-.239 1.254 1.254 0 00-.398.059.936.936 0 00-.306.155.71.71 0 00-.198.226.533.533 0 00-.07.268h-.779a.988.988 0 01.128-.475c.09-.164.212-.308.36-.423a1.91 1.91 0 01.567-.306c.238-.082.49-.122.742-.118.23-.002.458.028.678.091.199.055.384.15.542.282.15.129.268.289.347.469.086.208.129.432.125.657v2.077c0 .16.014.32.04.477.02.15.06.294.12.432v.062h-.822zm-1.282-.582a1.24 1.24 0 00.393-.059 1.467 1.467 0 00.608-.362c.069-.075.127-.159.173-.25v-.916h-.645a2.07 2.07 0 00-1.022.204.673.673 0 00-.36.619c0 .102.017.204.054.3a.655.655 0 00.165.242c.078.072.17.126.271.16.117.037.24.053.363.049v.013zm3.215-3.903h.775v3.847h2.081v-3.847h.773v3.847h.542l-.076 1.951h-.694v-1.313H84.52v-4.485zm7.923 0h.775v4.485h-.775v-3.274l-2.085 3.274h-.772v-4.485h.772v3.265l2.085-3.265zm1.809 2.195a2.773 2.773 0 01.144-.903c.088-.264.227-.509.409-.721.177-.205.397-.368.645-.48a2.23 2.23 0 011.716 0c.25.112.471.275.65.48.182.212.321.457.41.72.096.292.144.598.14.904v.091c.004.307-.044.612-.14.904a2.161 2.161 0 01-.41.718c-.18.202-.4.364-.647.475a2.223 2.223 0 01-1.713 0 1.897 1.897 0 01-.648-.475 2.119 2.119 0 01-.412-.718 2.786 2.786 0 01-.144-.904v-.09zm.778.091c-.002.214.024.427.079.633a1.6 1.6 0 00.238.523c.105.147.242.269.401.357.174.09.368.136.564.13a1.137 1.137 0 00.96-.487c.11-.16.191-.336.24-.523a2.37 2.37 0 00.082-.633v-.09a2.385 2.385 0 00-.081-.63 1.6 1.6 0 00-.244-.537 1.194 1.194 0 00-.401-.359 1.16 1.16 0 00-.564-.134 1.121 1.121 0 00-.542.134c-.16.089-.296.211-.401.36a1.6 1.6 0 00-.239.535 2.44 2.44 0 00-.079.63l-.013.091zm7.999 2.199h-.772v-1.909h-2.077v1.909h-.778v-4.485h.778v1.938h2.077v-1.938h.772v4.485zm4.933 0h-.759v-1.909h-2.076v1.909h-.775v-4.485h.775v1.938h2.076v-1.938h.773l-.014 4.485zm2.089-2.949h1.146c.248-.004.494.033.729.11.201.062.385.165.542.303a1.2 1.2 0 01.323.458c.074.184.111.381.108.58.002.198-.034.396-.108.58a1.3 1.3 0 01-.323.47 1.55 1.55 0 01-.542.314 2.1 2.1 0 01-.729.115h-1.922v-4.466h.776v1.536zm0 .624v1.681h1.146c.146.005.292-.019.428-.07a.725.725 0 00.426-.453 1.026 1.026 0 000-.605.736.736 0 00-.436-.477 1.097 1.097 0 00-.429-.078l-1.135.002zm4.448 2.306h-.789v-4.466h.778l.011 4.466zm2.864-2.834l1.003-1.632h.903l-1.477 2.211 1.523 2.26h-.894l-1.044-1.673-1.044 1.687h-.899l1.526-2.26-1.48-2.212h.894l.989 1.62zm6.647 2.298a1.172 1.172 0 00.724-.247.954.954 0 00.233-.268.85.85 0 00.108-.343h.729a1.324 1.324 0 01-.162.566c-.1.181-.233.343-.393.477-.167.14-.356.25-.561.324a1.855 1.855 0 01-.678.123 2.037 2.037 0 01-.889-.18 1.823 1.823 0 01-.629-.484 2.03 2.03 0 01-.374-.71 2.983 2.983 0 01-.122-.856v-.174c-.001-.29.04-.578.122-.855.075-.26.203-.501.374-.71a1.81 1.81 0 01.626-.486c.28-.126.585-.188.892-.18a1.99 1.99 0 01.721.124c.207.077.396.192.558.34.159.144.285.32.372.515.09.202.14.42.149.64h-.716a1.126 1.126 0 00-.1-.385 1.006 1.006 0 00-.968-.614 1.072 1.072 0 00-.975.509 1.6 1.6 0 00-.204.517 2.94 2.94 0 00-.057.577v.174c0 .196.019.392.057.584.037.182.104.356.201.515a1.1 1.1 0 00.382.367c.178.097.378.145.58.14zm5.599-3.93h.772v4.485h-.772v-3.274l-2.077 3.274h-.772v-4.485h.772v3.265l2.077-3.265zm3.827 3.93c.134 0 .266-.022.393-.065.119-.042.231-.104.331-.182a.936.936 0 00.233-.268.789.789 0 00.108-.343h.729a1.338 1.338 0 01-.162.566c-.1.181-.234.343-.393.477-.167.14-.357.25-.562.324a1.835 1.835 0 01-.677.123 2.034 2.034 0 01-.889-.18 1.814 1.814 0 01-.629-.484 2.12 2.12 0 01-.374-.71 2.948 2.948 0 01-.122-.856v-.174c-.002-.29.04-.578.122-.855.078-.259.205-.5.374-.71a1.8 1.8 0 01.626-.486c.278-.126.581-.187.886-.18a1.99 1.99 0 01.721.124c.208.077.398.192.562.34.156.145.282.32.368.515.09.202.141.42.149.64h-.729a1.102 1.102 0 00-.098-.385 1.018 1.018 0 00-.542-.537 1.134 1.134 0 00-.782-.042 1.12 1.12 0 00-.619.474c-.098.16-.166.334-.201.517-.04.19-.06.383-.059.577v.174c-.001.196.019.392.059.584.036.182.103.356.198.515.096.151.227.277.383.367.182.1.388.148.596.14zm6.023-3.308h-1.515v3.863h-.772V13.12h-1.488v-.622h3.775v.622zm2.297 3.932a2.192 2.192 0 01-.857-.16 1.918 1.918 0 01-.653-.445 2.014 2.014 0 01-.418-.684 2.52 2.52 0 01-.146-.869v-.174a2.69 2.69 0 01.165-.976c.099-.266.249-.511.442-.72.176-.192.39-.345.629-.451a1.86 1.86 0 01.74-.153 1.92 1.92 0 01.835.166c.227.106.426.264.58.461.157.208.271.444.336.695.075.284.111.577.108.87v.344h-3.062c.004.197.038.392.103.58.058.17.15.33.271.466.115.132.257.238.417.313.17.078.355.117.542.115.242.008.482-.048.694-.163a1.74 1.74 0 00.496-.44l.472.365a1.883 1.883 0 01-.632.587c-.149.085-.308.15-.474.193-.192.052-.39.079-.588.08zm-.098-4.007a1.094 1.094 0 00-.431.083c-.131.059-.25.143-.35.246a1.334 1.334 0 00-.271.402c-.07.172-.118.353-.141.537h2.266v-.06a2.072 2.072 0 00-.073-.442 1.154 1.154 0 00-.19-.391.95.95 0 00-.328-.281 1.023 1.023 0 00-.482-.094zm5.356 2.911l1.536-3.458h.965v4.485h-.772v-3.265l-1.461 3.265h-.542l-1.491-3.322v3.322h-.772v-4.485h1.002l1.535 3.458zm-96.395 6.697h.775v4.471h-.775v-3.26l-2.085 3.26h-.772v-4.471h.772v3.265l2.085-3.265zm3.928 2.195a2.77 2.77 0 01.144-.903c.09-.264.228-.508.409-.721.178-.205.4-.368.648-.48a2.02 2.02 0 01.85-.172c.297-.005.591.053.863.172.25.111.471.275.65.48.183.211.322.456.41.72.096.292.144.597.14.904v.091a2.76 2.76 0 01-.14.901 2.1 2.1 0 01-.41.721c-.179.202-.4.364-.647.475a2.221 2.221 0 01-1.714 0 1.931 1.931 0 01-.647-.475 2.14 2.14 0 01-.412-.721 2.753 2.753 0 01-.144-.9v-.092zm.778.091c0 .214.026.426.078.633.049.186.13.362.242.52.103.15.24.272.4.36.173.09.367.135.562.13.195.005.388-.04.561-.13.16-.089.297-.212.401-.36.11-.158.19-.334.239-.52.055-.206.082-.42.081-.633v-.09a2.386 2.386 0 00-.081-.63 1.649 1.649 0 00-.242-.537 1.201 1.201 0 00-.403-.36 1.13 1.13 0 00-.564-.133 1.093 1.093 0 00-.556.134c-.159.088-.295.21-.398.359a1.602 1.602 0 00-.242.536 2.529 2.529 0 00-.078.63v.091zm8.004 2.185h-.773v-3.839h-2.082v3.84H59.7v-4.472h3.63v4.471zm3.118.083a2.19 2.19 0 01-.854-.16 1.932 1.932 0 01-.656-.448 2.028 2.028 0 01-.417-.686c-.1-.278-.15-.572-.147-.866v-.175a2.74 2.74 0 01.166-.976c.098-.266.248-.51.442-.72a1.845 1.845 0 011.369-.603c.288-.01.574.048.837.165.226.107.424.265.577.462.158.206.273.442.336.694.075.284.112.577.109.871v.343h-3.06c.003.197.037.392.1.58a1.323 1.323 0 00.688.779c.17.078.355.118.542.116.243.008.483-.05.694-.167.193-.112.363-.26.499-.436l.472.364c-.08.115-.17.222-.271.32a1.942 1.942 0 01-.838.461c-.191.052-.39.08-.588.082zm-.098-4.008a1.046 1.046 0 00-.78.33 1.361 1.361 0 00-.258.402 2.01 2.01 0 00-.138.55h2.263v-.06a2.093 2.093 0 00-.073-.441 1.22 1.22 0 00-.187-.392 1.008 1.008 0 00-.328-.281 1.045 1.045 0 00-.499-.107zm6.571 1.741c.002.305-.037.61-.116.905-.07.258-.185.502-.342.719a1.529 1.529 0 01-1.293.643 1.986 1.986 0 01-.745-.131 1.523 1.523 0 01-.542-.386v2.144h-.773v-6.181h.689l.035.495c.15-.183.34-.33.556-.428a1.82 1.82 0 01.756-.148c.262-.005.52.05.756.164.215.112.4.272.542.466.159.216.273.46.34.719.08.303.12.616.116.93l.021.088zm-.772-.09a2.623 2.623 0 00-.073-.63 1.542 1.542 0 00-.22-.517 1.079 1.079 0 00-.382-.353 1.094 1.094 0 00-.542-.13 1.228 1.228 0 00-.358.047 1.034 1.034 0 00-.52.324 1.435 1.435 0 00-.177.244v2.144c.051.088.11.17.177.247a1.056 1.056 0 00.523.32c.118.032.24.047.363.045a1.05 1.05 0 00.922-.488c.105-.16.18-.337.22-.523.049-.207.073-.42.072-.633l-.005-.096zm4.546 2.274a.705.705 0 01-.068-.209 3.327 3.327 0 01-.04-.268 1.916 1.916 0 01-.543.391 1.726 1.726 0 01-.745.164 1.8 1.8 0 01-.63-.105 1.426 1.426 0 01-.479-.268 1.246 1.246 0 01-.417-.938c-.005-.22.045-.438.143-.635.096-.184.236-.343.407-.462a1.96 1.96 0 01.642-.281c.275-.065.556-.096.838-.094h.772v-.351a.85.85 0 00-.24-.638.985.985 0 00-.716-.239 1.237 1.237 0 00-.396.06.952.952 0 00-.31.155.744.744 0 00-.197.225.551.551 0 00-.07.268h-.781a.988.988 0 01.127-.474 1.36 1.36 0 01.364-.424c.169-.133.36-.237.563-.308.24-.08.49-.12.743-.116.23-.002.457.029.678.092.199.053.384.15.542.281.15.13.268.29.347.47.087.207.13.43.124.656v2.078c0 .16.01.32.036.48.02.148.06.293.119.431v.067l-.813-.008zm-1.285-.582a1.416 1.416 0 00.73-.21c.099-.057.19-.128.27-.21a1.04 1.04 0 00.174-.25v-.917h-.643a2.08 2.08 0 00-1.024.204.677.677 0 00-.36.62.832.832 0 00.053.3.655.655 0 00.166.24c.08.07.171.125.27.162.117.042.24.063.364.061zm6.441-3.268h-1.518v3.85h-.776v-3.85h-1.488v-.621h3.779l.003.622zm.37 1.574a2.772 2.772 0 01.144-.903c.09-.264.228-.51.41-.721.177-.205.397-.369.645-.48.268-.118.56-.177.854-.172.296-.005.59.053.862.172.249.111.47.275.65.48.182.212.32.457.41.72.096.292.144.597.14.904v.091a2.76 2.76 0 01-.14.901c-.088.264-.227.51-.41.721-.18.202-.4.363-.648.475a2.221 2.221 0 01-1.713 0 1.896 1.896 0 01-.648-.475 2.108 2.108 0 01-.412-.721 2.756 2.756 0 01-.143-.9v-.092zm.776.091c0 .21.029.42.084.622.047.186.128.363.239.52.104.149.241.272.4.36.174.09.368.136.565.13.194.005.386-.04.558-.13.16-.082.3-.2.406-.344.11-.158.192-.334.242-.52.055-.206.082-.419.081-.632v-.091a2.39 2.39 0 00-.081-.63 1.598 1.598 0 00-.244-.537 1.13 1.13 0 00-.965-.493 1.094 1.094 0 00-.542.134c-.16.089-.297.212-.401.36a1.6 1.6 0 00-.239.536 2.385 2.385 0 00-.081.63l-.022.085zm8.128.001c.003.305-.036.61-.117.905a2.209 2.209 0 01-.339.719 1.548 1.548 0 01-1.293.643 1.99 1.99 0 01-.748-.131 1.513 1.513 0 01-.542-.386v2.144h-.772v-6.181h.704l.038.496c.145-.183.33-.33.542-.43.239-.102.497-.153.757-.147.26-.005.519.05.753.164.215.11.401.27.542.466.16.215.276.46.342.719.079.303.117.616.114.93l.019.088zm-.773-.09a2.85 2.85 0 00-.07-.63 1.547 1.547 0 00-.223-.517 1.045 1.045 0 00-.927-.482 1.26 1.26 0 00-.358.046c-.102.028-.2.07-.29.125a1.079 1.079 0 00-.23.199 1.422 1.422 0 00-.173.244v2.145c.05.087.107.17.173.246a1.056 1.056 0 00.523.32c.118.032.24.047.363.045.19.005.377-.04.543-.132.151-.088.28-.21.376-.356a1.53 1.53 0 00.222-.523c.048-.208.072-.42.071-.633v-.096zm1.549-.002a2.773 2.773 0 01.144-.903c.09-.264.229-.508.41-.721.177-.204.397-.368.645-.48a2.232 2.232 0 011.715 0c.25.111.472.275.65.48.184.214.323.462.41.729.097.291.144.596.141.903v.091c.003.306-.044.61-.14.901a2.1 2.1 0 01-.41.721c-.18.202-.4.363-.648.475a2.221 2.221 0 01-1.713 0 1.893 1.893 0 01-.648-.475 2.138 2.138 0 01-.412-.72 2.756 2.756 0 01-.144-.902v-.099zm.778.091c0 .214.026.426.079.633.048.186.13.362.241.52.104.15.241.272.401.36a1.258 1.258 0 001.12 0c.16-.087.298-.21.401-.36.11-.158.192-.334.241-.52.055-.206.083-.42.082-.633v-.09a2.385 2.385 0 00-.082-.63 1.648 1.648 0 00-.241-.537 1.202 1.202 0 00-.404-.36 1.129 1.129 0 00-.564-.133 1.092 1.092 0 00-.555.134c-.16.088-.296.21-.399.359a1.6 1.6 0 00-.241.536c-.053.206-.08.418-.079.63v.091zm4.377 2.185v-4.471h1.761c.262-.002.522.023.778.075.208.041.407.117.589.225.155.094.284.226.374.383.086.166.13.35.127.536a.91.91 0 01-.187.56c-.139.178-.328.31-.542.384.136.03.267.08.388.15.107.063.203.143.284.236.078.09.137.192.176.303a1.199 1.199 0 01-.062.898 1.07 1.07 0 01-.347.394 1.668 1.668 0 01-.542.239 3.01 3.01 0 01-.727.08l-2.07.008zm.772-2.573h1c.723 0 1.085-.21 1.085-.628 0-.434-.364-.648-1.085-.648h-.989l-.01 1.276zm0 .61v1.341h1.28c.254.018.507-.044.723-.177a.64.64 0 00.241-.497.628.628 0 00-.24-.497 1.238 1.238 0 00-.725-.174l-1.279.005zm5.958-.313a2.776 2.776 0 01.144-.903 2.22 2.22 0 01.409-.721c.178-.204.398-.368.645-.48a2.233 2.233 0 011.716 0c.249.111.471.275.651.48.181.212.32.457.409.72.097.292.144.597.141.904v.091a2.76 2.76 0 01-.141.901c-.088.264-.227.51-.409.721-.18.202-.401.363-.648.475a2.226 2.226 0 01-1.713 0 1.895 1.895 0 01-.648-.475 2.135 2.135 0 01-.412-.72 2.76 2.76 0 01-.144-.902v-.09zm.778.091c-.002.214.024.427.079.633.048.186.13.362.241.52.103.15.24.273.401.36a1.261 1.261 0 001.12 0c.16-.087.298-.21.401-.36.11-.158.192-.334.241-.52.055-.206.083-.42.081-.633v-.09a2.393 2.393 0 00-.081-.63 1.658 1.658 0 00-.241-.537 1.214 1.214 0 00-.404-.36 1.13 1.13 0 00-.564-.133 1.094 1.094 0 00-.556.134 1.19 1.19 0 00-.398.359 1.59 1.59 0 00-.241.536 2.392 2.392 0 00-.079.63v.091zm6.292-2.029c.271-.005.54.047.789.153.226.097.428.243.591.426.165.187.29.405.369.64.086.26.129.532.127.805v.091c.002.294-.044.586-.136.866a1.95 1.95 0 01-.395.689c-.178.195-.395.35-.637.456a2.258 2.258 0 01-1.7 0 1.84 1.84 0 01-.634-.456 1.96 1.96 0 01-.401-.689 2.711 2.711 0 01-.136-.866v-.41a5.355 5.355 0 01.147-1.34c.083-.344.224-.67.417-.968.168-.253.389-.467.648-.627.254-.157.535-.265.829-.32a4.55 4.55 0 00.437-.09 1.49 1.49 0 00.328-.124.579.579 0 00.206-.185.496.496 0 00.07-.268h.634c.012.22-.032.44-.127.64a.928.928 0 01-.339.368 1.53 1.53 0 01-.482.198l-.564.126a2.966 2.966 0 00-.542.17 1.61 1.61 0 00-.453.289 1.64 1.64 0 00-.341.453 2.207 2.207 0 00-.206.662c.181-.207.4-.379.645-.507.265-.13.56-.193.856-.182zm-.152.627a1.224 1.224 0 00-.542.116c-.15.071-.283.176-.387.305-.104.133-.18.284-.225.445-.05.175-.075.355-.073.536v.086c-.002.2.023.4.073.595.043.178.121.346.227.496.103.141.236.258.391.34.171.088.362.132.555.127.189.002.375-.041.542-.126.155-.083.287-.2.388-.34a1.45 1.45 0 00.228-.497c.052-.194.077-.394.076-.595v-.096a1.836 1.836 0 00-.076-.537 1.24 1.24 0 00-.231-.445 1.09 1.09 0 00-.39-.305 1.243 1.243 0 00-.556-.105zm5.43 2.573l1.537-3.457h.965v4.471h-.772v-3.252l-1.464 3.252h-.542l-1.491-3.321v3.321h-.764v-4.471h1.002l1.529 3.458zm5.619 1.097a2.187 2.187 0 01-.854-.16 1.932 1.932 0 01-.656-.448 1.988 1.988 0 01-.418-.686 2.482 2.482 0 01-.146-.866v-.175a2.73 2.73 0 01.165-.976c.099-.266.249-.51.442-.72a1.841 1.841 0 011.369-.603 1.92 1.92 0 01.838.165c.226.107.424.265.577.462.157.207.271.443.336.694.075.284.111.577.108.871v.343h-3.063c.005.197.039.393.103.58.059.17.151.33.272.466a1.248 1.248 0 00.959.429c.242.008.482-.05.694-.167a1.7 1.7 0 00.496-.436l.474.364a1.895 1.895 0 01-.631.587c-.149.085-.308.15-.475.193a2.313 2.313 0 01-.59.083zm-.098-4.008a1.045 1.045 0 00-.781.33 1.3 1.3 0 00-.257.402c-.07.18-.114.367-.13.558h2.263v-.059a2.072 2.072 0 00-.073-.442 1.239 1.239 0 00-.187-.392 1.02 1.02 0 00-.328-.281 1.045 1.045 0 00-.507-.116zm6.447 3.925h-.775v-1.909h-2.076v1.91h-.775v-4.472h.775v1.938h2.076v-1.938h.775v4.471zm4.04 0a.81.81 0 01-.068-.209 3.091 3.091 0 01-.04-.268 1.844 1.844 0 01-.89.512 1.908 1.908 0 01-1.027-.062 1.46 1.46 0 01-.48-.268 1.283 1.283 0 01-.417-.938 1.275 1.275 0 01.55-1.096c.195-.132.413-.228.643-.282.275-.065.557-.096.84-.094h.767v-.351a.857.857 0 00-.241-.638.99.99 0 00-.716-.239 1.242 1.242 0 00-.396.06.988.988 0 00-.309.155.74.74 0 00-.197.225.549.549 0 00-.071.268h-.778a.992.992 0 01.119-.482c.091-.165.215-.309.364-.424.17-.134.361-.238.566-.308.238-.08.489-.12.74-.115.23-.003.459.028.68.09.2.055.384.15.543.282a1.3 1.3 0 01.347.47c.087.207.13.43.124.656v2.078c.001.16.014.32.041.477.021.148.061.293.119.431v.068l-.813.002zm-1.282-.582a1.27 1.27 0 00.393-.059c.117-.035.229-.086.333-.15.1-.058.191-.13.271-.211.07-.075.129-.159.174-.25v-.917h-.643a2.08 2.08 0 00-1.024.204.67.67 0 00-.358.62.81.81 0 00.054.3.59.59 0 00.166.24.796.796 0 00.271.162c.113.04.234.061.355.061h.008zm5.321-3.889h.778V26.5h2.081v-3.847h.773V26.5h.542l-.076 1.951h-.694v-1.327h-3.404v-4.471zm7.925 0h.775v4.471h-.772v-3.26l-2.085 3.26h-.775v-4.471h.773v3.265l2.084-3.265zm1.858 2.318a4.14 4.14 0 01.103-.967c.06-.269.165-.526.312-.759a1.51 1.51 0 01.515-.496c.216-.12.462-.182.71-.177.214-.005.427.035.623.118v-1.91h.773v1.935a1.494 1.494 0 01.686-.142 1.41 1.41 0 01.713.177c.21.122.387.292.517.496.147.233.253.49.312.759.071.317.106.642.103.967v.086c.003.293-.033.585-.106.869a2.027 2.027 0 01-.314.68 1.451 1.451 0 01-.512.446c-.218.11-.461.164-.705.158a1.643 1.643 0 01-.694-.131v1.764h-.773v-1.751a1.564 1.564 0 01-.631.118 1.486 1.486 0 01-.702-.158 1.443 1.443 0 01-.512-.445 2.075 2.075 0 01-.312-.681 3.349 3.349 0 01-.106-.869v-.085zm.773.086c-.002.2.016.401.054.598.03.171.09.335.179.485a.941.941 0 00.325.327c.15.085.321.127.493.121a1.254 1.254 0 00.439-.075v-3.244a.916.916 0 00-.189-.05 1.314 1.314 0 00-.241-.02.852.852 0 00-.499.143c-.14.099-.252.23-.328.383a1.88 1.88 0 00-.179.566 3.884 3.884 0 00-.054.68v.086zm3.822-.085a3.702 3.702 0 00-.06-.681 1.895 1.895 0 00-.195-.566 1.102 1.102 0 00-.342-.383.877.877 0 00-.501-.142 1.495 1.495 0 00-.271.02.99.99 0 00-.201.063v3.233a.99.99 0 00.206.053c.09.013.181.02.271.019a.974.974 0 00.499-.12.988.988 0 00.339-.328c.092-.15.157-.313.192-.485a2.73 2.73 0 00.06-.598l.003-.085zm5.585-.032c.002.305-.037.61-.117.905a2.215 2.215 0 01-.341.719 1.55 1.55 0 01-1.293.643 1.972 1.972 0 01-.745-.131 1.51 1.51 0 01-.542-.386v2.144h-.773v-6.181h.705l.038.495c.145-.181.331-.328.542-.428.238-.103.496-.153.756-.148.262-.005.521.05.756.164.215.112.4.272.542.466.159.216.274.46.339.719.081.303.121.616.117.93l.016.088zm-.772-.09a2.623 2.623 0 00-.074-.63 1.534 1.534 0 00-.219-.517 1.083 1.083 0 00-.382-.353 1.097 1.097 0 00-.542-.13 1.228 1.228 0 00-.648.172 1.082 1.082 0 00-.231.199 1.45 1.45 0 00-.176.244v2.144c.051.088.11.17.176.247a1.053 1.053 0 00.523.32c.119.032.241.047.364.045a1.05 1.05 0 00.921-.488c.106-.16.18-.337.22-.523.049-.207.074-.42.073-.633l-.005-.096zm1.547-.002a2.68 2.68 0 01.16-.895c.088-.264.227-.51.409-.721a1.84 1.84 0 01.645-.48c.268-.118.558-.177.851-.172a2.08 2.08 0 01.865.172c.248.112.469.276.648.48.182.212.321.457.409.72.098.292.146.597.144.904v.091a2.76 2.76 0 01-.144.901 2.1 2.1 0 01-.409.721c-.179.203-.4.364-.648.475a2.221 2.221 0 01-1.713 0 1.937 1.937 0 01-.648-.475 2.137 2.137 0 01-.409-.74c-.1-.29-.149-.594-.146-.9l-.014-.08zm.778.091c-.001.214.026.426.079.633.048.186.13.362.241.52.104.149.241.271.401.36.172.09.366.136.561.13.195.005.388-.04.561-.13.16-.088.298-.21.401-.36.11-.158.19-.334.239-.52.056-.206.084-.419.084-.633v-.09c0-.213-.028-.425-.084-.63a1.608 1.608 0 00-.241-.537 1.215 1.215 0 00-.404-.36 1.127 1.127 0 00-.564-.133 1.096 1.096 0 00-.556.134c-.158.09-.294.212-.398.36a1.589 1.589 0 00-.241.535 2.48 2.48 0 00-.079.63v.091zm4.378 2.185v-4.471h1.765c.261-.002.522.023.778.075.207.042.406.118.588.225.155.094.283.226.371.383.089.165.134.35.13.536a.91.91 0 01-.187.56c-.14.177-.328.31-.542.384.136.03.266.08.385.15.108.063.205.142.287.236a.98.98 0 01.233.646c.005.192-.037.382-.121.555-.081.158-.2.294-.347.394a1.646 1.646 0 01-.543.239 2.99 2.99 0 01-.726.08l-2.071.008zm.775-2.573h1.006c.723 0 1.084-.21 1.084-.628 0-.434-.366-.648-1.084-.648h-.989l-.017 1.276zm0 .61v1.341h1.277c.255.018.509-.044.726-.177a.638.638 0 000-.994 1.245 1.245 0 00-.726-.175l-1.277.006zm4.886-.967h1.15c.247-.004.494.033.729.11.2.063.384.166.542.303a1.2 1.2 0 01.32.458c.074.184.111.381.108.58.002.198-.035.396-.108.581-.071.178-.18.338-.32.47a1.602 1.602 0 01-.542.313 2.1 2.1 0 01-.729.115h-1.922v-4.471h.772v1.541zm0 .625v1.68h1.15c.145.005.289-.019.425-.07a.712.712 0 00.437-.45.965.965 0 000-.605.804.804 0 00-.155-.268.76.76 0 00-.271-.199 1.02 1.02 0 00-.426-.078l-1.16-.01zm4.448 2.305h-.775v-4.471h.775v4.471zm2.868-2.839l1.003-1.632h.903l-1.48 2.211 1.526 2.26h-.895l-1.046-1.673-1.044 1.673h-.897l1.523-2.26-1.477-2.211h.892l.992 1.632zM47.53 35.126a4.32 4.32 0 01.103-.97c.06-.268.166-.523.312-.756.13-.204.306-.374.515-.496a1.38 1.38 0 01.71-.18c.215-.004.427.037.624.121v-1.922h.762v1.938a1.515 1.515 0 01.685-.145c.25-.005.498.057.716.18a1.5 1.5 0 01.515.496c.146.232.252.488.311.756.073.318.107.644.103.97v.094c.003.293-.032.585-.105.869a2.033 2.033 0 01-.315.68 1.443 1.443 0 01-.51.446c-.218.11-.461.164-.707.158a1.641 1.641 0 01-.694-.132v1.764h-.772v-1.75a1.528 1.528 0 01-.632.118 1.489 1.489 0 01-.702-.158 1.442 1.442 0 01-.51-.445 2.029 2.029 0 01-.314-.681 3.376 3.376 0 01-.105-.869l.01-.086zm.773.086c0 .2.018.4.054.598.03.171.09.335.18.485a.94.94 0 00.324.327c.15.084.321.126.494.12a1.207 1.207 0 00.44-.075v-3.243a.883.883 0 00-.19-.05 1.31 1.31 0 00-.242-.02.833.833 0 00-.499.142c-.14.1-.252.231-.328.384-.09.178-.15.369-.179.565a4.21 4.21 0 00-.054.681v.086zm3.822-.086a3.66 3.66 0 00-.06-.68 1.863 1.863 0 00-.195-.566 1.101 1.101 0 00-.341-.384.861.861 0 00-.502-.142 1.493 1.493 0 00-.271.022 1.03 1.03 0 00-.2.061v3.233a.995.995 0 00.206.054c.09.013.18.019.27.019a.944.944 0 00.838-.448 1.51 1.51 0 00.193-.485c.04-.197.06-.397.06-.598l.002-.086zm4.699-2.326h.778v4.47h-.772v-3.25l-2.085 3.259h-.772v-4.48h.772v3.266l2.08-3.266zm5.707 4.479h-.775V35.37h-2.077v1.909h-.775v-4.48h.775v1.939h2.077v-1.939h.775v4.48zm4.031 0a.867.867 0 01-.068-.21 3.334 3.334 0 01-.04-.267 1.815 1.815 0 01-.89.512 1.912 1.912 0 01-1.027-.062 1.413 1.413 0 01-.48-.281 1.24 1.24 0 01-.415-.936 1.37 1.37 0 01.142-.635c.096-.184.235-.343.407-.461.195-.132.412-.227.642-.282.275-.065.557-.096.84-.094h.767v-.35a.854.854 0 00-.241-.639.985.985 0 00-.716-.238 1.237 1.237 0 00-.395.059.987.987 0 00-.307.152.782.782 0 00-.2.226.569.569 0 00-.07.268h-.776a.987.987 0 01.127-.478c.09-.163.213-.307.361-.423.17-.132.362-.235.567-.306.237-.08.488-.12.74-.118.23-.002.459.03.68.094.199.054.384.15.542.282.15.128.269.288.347.469.087.208.13.431.125.657v2.077c0 .16.014.32.04.477.021.149.061.294.12.432v.067l-.822.008zm-1.282-.582c.133 0 .266-.02.393-.059a1.45 1.45 0 00.605-.364.913.913 0 00.173-.247v-.917h-.642c-.354-.02-.706.05-1.025.204a.674.674 0 00-.358.62.797.797 0 00.055.3c.034.092.09.175.165.24.079.071.17.126.27.162.117.041.24.062.364.061zm6.839.582h-.773V35.37H69.27v1.909h-.778v-4.48h.778v1.939h2.076v-1.939h.773v4.48zm3.055-.542c.133.001.265-.021.39-.067.121-.04.234-.1.334-.18a.957.957 0 00.233-.267.835.835 0 00.108-.346h.73a1.33 1.33 0 01-.163.568c-.1.182-.233.344-.393.477a1.918 1.918 0 01-.561.325 1.854 1.854 0 01-.678.123 2.078 2.078 0 01-.889-.18 1.818 1.818 0 01-.629-.485 2.033 2.033 0 01-.374-.71 2.97 2.97 0 01-.122-.858v-.172c-.001-.289.04-.577.122-.855.076-.259.203-.5.374-.71a1.8 1.8 0 01.626-.485c.278-.127.581-.19.887-.183.246-.002.49.04.72.126.208.076.398.192.56.34.158.145.284.32.37.516.09.202.141.42.15.64h-.73a1.103 1.103 0 00-.317-.702 1.085 1.085 0 00-.328-.212 1.095 1.095 0 00-.425-.078 1.073 1.073 0 00-.976.51 1.59 1.59 0 00-.203.517 2.95 2.95 0 00-.057.576v.172c0 .197.019.394.057.587.035.181.103.354.2.512.095.153.226.28.382.37.185.097.393.143.602.131zm2.457-1.734a2.69 2.69 0 01.146-.904c.088-.264.227-.509.41-.72a1.85 1.85 0 01.645-.48c.267-.12.558-.179.85-.175.298-.004.593.055.865.175.249.111.47.275.648.48.183.211.322.456.41.72.097.292.146.597.143.904v.091c.003.306-.046.61-.143.9a2.09 2.09 0 01-.41.722c-.179.202-.4.364-.647.474a2.222 2.222 0 01-1.713 0 1.932 1.932 0 01-.648-.474 2.137 2.137 0 01-.41-.721c-.1-.29-.149-.595-.146-.9v-.092zm.778.091c0 .212.026.424.078.63.05.187.131.364.242.523.105.148.242.27.4.359.173.091.367.136.562.131.195.005.388-.04.561-.131.16-.088.297-.21.401-.36.11-.159.19-.335.239-.522a2.27 2.27 0 00.084-.63v-.091a2.281 2.281 0 00-.084-.63 1.6 1.6 0 00-.242-.536 1.2 1.2 0 00-.403-.36 1.125 1.125 0 00-.564-.133 1.094 1.094 0 00-.556.134 1.223 1.223 0 00-.398.359 1.646 1.646 0 00-.242.536 2.529 2.529 0 00-.078.63v.091zm4.378 2.185v-4.48h1.765c.261-.003.522.023.778.075.208.04.407.116.588.226.155.094.283.226.371.383.089.165.134.35.13.536a.899.899 0 01-.19.56c-.138.178-.327.31-.542.381.137.031.267.083.388.153.108.062.205.142.287.236a.97.97 0 01.174.303 1.197 1.197 0 01-.062.898c-.08.158-.2.293-.348.394a1.633 1.633 0 01-.542.238 2.995 2.995 0 01-.726.08l-2.07.017zm.775-2.574h.998c.723 0 1.084-.21 1.084-.63 0-.42-.361-.636-1.084-.648h-.99l-.008 1.278zm0 .612v1.34h1.277c.255.018.51-.044.726-.177a.645.645 0 00.238-.497.638.638 0 00-.238-.497 1.248 1.248 0 00-.726-.175l-1.277.006zm4.888-.968h1.148a2.25 2.25 0 01.73.11c.199.063.383.165.542.3.14.127.25.285.32.461.074.184.11.381.108.58.002.198-.035.396-.109.58-.07.179-.18.339-.32.47a1.602 1.602 0 01-.541.314 2.13 2.13 0 01-.73.115h-1.91v-4.48h.772l-.01 1.55zm0 .625v1.68h1.148c.145.003.29-.02.426-.07a.767.767 0 00.271-.184.73.73 0 00.154-.268.97.97 0 000-.609.802.802 0 00-.425-.47 1.067 1.067 0 00-.426-.074l-1.149-.005zm4.447 2.305h-.775v-4.48h.775v4.48zm2.87-2.839l1.003-1.633h.903l-1.48 2.212 1.526 2.26h-.895l-1.046-1.673-1.041 1.673h-.897l1.523-2.26-1.48-2.22h.892l.992 1.641zm7.644 2.839a.74.74 0 01-.068-.21 3.08 3.08 0 01-.041-.267 2.19 2.19 0 01-.247.214 1.695 1.695 0 01-.645.298c-.13.028-.262.042-.395.043a1.795 1.795 0 01-.629-.105 1.387 1.387 0 01-.48-.281 1.236 1.236 0 01-.417-.936 1.277 1.277 0 01.55-1.096c.195-.132.413-.227.642-.282.274-.065.556-.096.838-.094h.77v-.35a.858.858 0 00-.242-.639.98.98 0 00-.721-.238 1.231 1.231 0 00-.395.059.992.992 0 00-.309.152.798.798 0 00-.198.226.561.561 0 00-.071.268h-.778a1 1 0 01.128-.478 1.43 1.43 0 01.363-.423c.17-.132.36-.235.564-.306.239-.08.49-.12.742-.118.23-.002.458.03.678.094a1.316 1.316 0 01.889.75c.088.209.13.432.125.657v2.078c0 .16.014.32.04.477.021.149.062.294.12.432v.067l-.813.008zm-1.283-.582a1.423 1.423 0 00.998-.424.968.968 0 00.173-.246v-.917h-.642a2.09 2.09 0 00-1.025.204.663.663 0 00-.36.62.86.86 0 00.054.3.661.661 0 00.165.24c.08.07.172.125.272.162.113.04.233.061.355.061h.01zm4.534-1.324h-.566v1.906h-.776v-4.48h.776v1.893h.506l1.521-1.893h.935l-1.786 2.145 1.938 2.322h-.981l-1.567-1.893zm6.579-1.946h-1.516v3.852h-.775v-3.852h-1.485v-.628h3.776v.628zm3.674-.627h.776v4.47h-.776v-3.25l-2.084 3.259h-.772v-4.48h.772v3.266l2.084-3.266zm2.089 4.479v-4.48h1.754c.261-.003.522.023.778.075.208.04.407.116.588.226a1.038 1.038 0 01.501.92.91.91 0 01-.187.56c-.143.178-.336.31-.556.38.136.031.266.083.385.153.109.062.206.142.288.236a.99.99 0 01.176.303 1.212 1.212 0 01-.065.898c-.08.159-.199.294-.347.394a1.637 1.637 0 01-.542.238 3.04 3.04 0 01-.729.08l-2.044.017zm.772-2.574h.998c.723 0 1.084-.21 1.084-.63 0-.42-.361-.636-1.084-.648h-.989l-.009 1.278zm0 .612v1.34h1.277a1.21 1.21 0 00.726-.177.638.638 0 000-.994 1.24 1.24 0 00-.726-.175l-1.277.006zm3.837-.314a2.775 2.775 0 01.144-.904 2.24 2.24 0 01.409-.72c.179-.205.4-.368.648-.48.268-.12.558-.179.851-.175a2.06 2.06 0 01.862.175c.25.111.471.275.651.48.182.211.321.456.409.72.097.292.145.597.141.904v.091a2.75 2.75 0 01-.141.9c-.087.266-.226.51-.409.722-.18.201-.401.363-.648.474a2.222 2.222 0 01-1.713 0 1.937 1.937 0 01-.648-.474 2.152 2.152 0 01-.412-.721 2.76 2.76 0 01-.144-.9v-.092zm.778.091c0 .212.026.424.079.63.048.187.13.364.241.523.104.148.242.271.401.36.173.09.366.135.561.13.196.005.389-.04.561-.13a1.2 1.2 0 00.399-.36 1.61 1.61 0 00.241-.523c.055-.205.083-.417.081-.63v-.091a2.351 2.351 0 00-.081-.63 1.637 1.637 0 00-.241-.536 1.194 1.194 0 00-.404-.36 1.13 1.13 0 00-.564-.133 1.09 1.09 0 00-.555.134c-.159.088-.296.21-.399.359a1.59 1.59 0 00-.241.536 2.526 2.526 0 00-.079.63v.091zm4.379 2.185v-4.48h1.761a3.62 3.62 0 01.778.075c.209.04.408.116.588.226.157.093.286.225.375.383a1.1 1.1 0 01.127.536.91.91 0 01-.187.56c-.138.178-.327.31-.542.381.136.031.267.083.387.153.107.063.203.143.285.236a.923.923 0 01.176.303c.039.11.059.226.06.343.004.192-.038.382-.122.555-.081.157-.2.293-.347.394a1.668 1.668 0 01-.542.238 2.993 2.993 0 01-.727.08l-2.07.017zm.772-2.574h1c.723 0 1.084-.21 1.084-.63 0-.431-.363-.648-1.084-.648h-.989l-.011 1.278zm0 .612v1.34h1.279c.254.018.508-.044.724-.177a.642.642 0 00.178-.773.647.647 0 00-.178-.221 1.239 1.239 0 00-.724-.175l-1.279.006z" fill="#000"/><path fill-rule="evenodd" clip-rule="evenodd" d="M20.694 20.462L15.24 10.23 20.694 0l5.45 10.23 15.242 28.607H30.484l-9.79-18.375z" fill="url(#paint0_linear)"/><path fill-rule="evenodd" clip-rule="evenodd" d="M9.788 20.468l10.907-.006-9.793 18.375H0l9.788-18.37z" fill="#1C1C1C"/></g><defs><linearGradient id="paint0_linear" x1="15.24" y1="19.417" x2="41.386" y2="19.417" gradientUnits="userSpaceOnUse"><stop stop-color="#ACFFB7"/><stop offset=".5" stop-color="#0BCAFF"/><stop offset="1" stop-color="#1F93FF"/></linearGradient><clipPath id="clip0"><path fill="#fff" d="M0 0h177v39H0z"/></clipPath></defs></svg>