<svg width="150" height="50" fill="none" xmlns="http://www.w3.org/2000/svg"><path d="M66.931 19.622h-3.33l-.75 2.019h-1.084l3.038-7.746h.921l3.046 7.746h-1.077l-.764-2.018zm-3.016-.837h2.702l-1.348-3.622-1.354 3.622zm8.135 2.164c.18 0 .353-.03.517-.088a1.45 1.45 0 00.434-.233c.128-.102.225-.219.307-.357a1.04 1.04 0 00.143-.445h.95c-.015.255-.09.503-.217.73-.127.232-.3.436-.509.611a2.571 2.571 0 01-1.624.583c-.442 0-.831-.08-1.16-.233a2.331 2.331 0 01-.824-.627 2.595 2.595 0 01-.486-.918 3.804 3.804 0 01-.165-1.1v-.219c0-.386.053-.75.165-1.1.112-.35.27-.656.486-.918a2.33 2.33 0 01.824-.627c.329-.153.71-.233 1.16-.233.344 0 .659.051.943.16.284.11.524.255.734.438.202.19.366.408.486.663.12.255.18.532.195.823h-.958a1.563 1.563 0 00-.128-.495 1.195 1.195 0 00-.284-.401 1.422 1.422 0 00-.427-.277 1.494 1.494 0 00-.554-.102c-.314 0-.576.058-.778.182a1.446 1.446 0 00-.494.474 1.93 1.93 0 00-.262.663 3.577 3.577 0 00-.075.743v.226c0 .255.023.503.075.75.052.248.135.467.262.663.127.197.292.35.494.474.195.131.457.19.77.19zm5.862 0c.18 0 .351-.03.516-.088a1.45 1.45 0 00.434-.233 1.29 1.29 0 00.307-.357c.082-.139.127-.284.142-.445h.958c-.015.255-.09.503-.217.73a2.22 2.22 0 01-.509.611 2.571 2.571 0 01-1.624.583c-.441 0-.83-.08-1.16-.233a2.331 2.331 0 01-.823-.627 2.595 2.595 0 01-.487-.918 3.804 3.804 0 01-.165-1.1v-.219c0-.386.053-.75.165-1.1.112-.35.27-.656.487-.918a2.33 2.33 0 01.823-.627c.33-.153.711-.233 1.16-.233.344 0 .659.051.943.16.285.11.524.255.734.438.202.19.367.408.486.663.12.255.18.532.195.823h-.958a1.56 1.56 0 00-.127-.495 1.198 1.198 0 00-.285-.401 1.422 1.422 0 00-.426-.277 1.495 1.495 0 00-.554-.102c-.315 0-.577.058-.779.182a1.445 1.445 0 00-.494.474 1.795 1.795 0 00-.262.663 3.577 3.577 0 00-.075.743v.226c0 .255.023.503.075.75.053.248.135.467.262.663.127.197.292.35.494.474.187.131.45.19.764.19zm3.218-2.237c0-.416.06-.81.187-1.166a2.79 2.79 0 01.54-.926c.231-.262.516-.466.845-.619.33-.146.704-.226 1.115-.226.42 0 .794.073 1.13.226.337.146.614.357.854.62.232.262.412.568.539.925.127.357.187.743.187 1.166v.116c0 .416-.06.809-.187 1.166-.127.357-.3.663-.54.925a2.427 2.427 0 01-.845.613c-.33.145-.704.218-1.123.218a2.8 2.8 0 01-1.122-.218 2.426 2.426 0 01-.846-.613 2.788 2.788 0 01-.54-.925 3.438 3.438 0 01-.186-1.166v-.116h-.008zm1.018.116c0 .284.038.561.105.816.067.255.172.481.314.67.143.197.315.35.524.46.21.109.457.167.734.167.277 0 .524-.058.733-.167.21-.117.39-.27.524-.46.135-.196.24-.415.315-.67.075-.255.104-.524.104-.816v-.116c0-.285-.037-.554-.104-.81a2.186 2.186 0 00-.315-.677 1.586 1.586 0 00-.524-.466 1.5 1.5 0 00-.74-.175 1.46 1.46 0 00-.727.175c-.21.116-.381.27-.524.466a1.965 1.965 0 00-.314.678 3.153 3.153 0 00-.105.809v.116zm5.719-2.936h1.018v4.955h2.724v-4.955h1.01v4.955h.704l-.097 2.513h-.906v-1.704h-4.446v-5.764h-.007zm10.367 0h1.01v5.756h-1.01v-4.197l-2.725 4.197h-1.01v-5.756h1.01v4.204l2.725-4.204zm6.287 5.756a1.044 1.044 0 01-.09-.27 4.773 4.773 0 01-.052-.335c-.098.095-.202.19-.322.277a2.261 2.261 0 01-.846.38 2.388 2.388 0 01-.516.057c-.3 0-.577-.043-.824-.13a1.892 1.892 0 01-.629-.365 1.702 1.702 0 01-.404-.54 1.547 1.547 0 01-.142-.67c0-.306.06-.583.187-.816.127-.233.3-.43.532-.59a2.65 2.65 0 01.838-.364 4.65 4.65 0 011.1-.124h1.003v-.452c0-.342-.105-.62-.314-.823-.21-.204-.524-.306-.936-.306-.187 0-.359.021-.516.072a1.47 1.47 0 00-.404.197.962.962 0 00-.262.292.63.63 0 00-.09.342h-1.018c0-.204.052-.408.164-.612.113-.204.27-.386.472-.546.202-.16.449-.292.741-.394.292-.102.614-.153.973-.153.322 0 .614.037.891.117.277.08.501.197.696.364.195.168.344.364.457.605.112.24.164.524.164.845v2.674c0 .197.015.401.053.612.037.212.089.401.157.554v.088h-1.063v.014zm-1.684-.75a1.73 1.73 0 00.95-.27 1.43 1.43 0 00.345-.277 1.25 1.25 0 00.224-.32v-1.18h-.838c-.576 0-1.026.087-1.34.261-.314.175-.471.438-.471.795 0 .138.022.27.067.386.045.116.12.226.217.313a1.1 1.1 0 00.352.204c.149.058.314.088.494.088zm4.206-5.006h1.018v4.955h2.725v-4.955h1.01v4.955h.704l-.097 2.513h-.906v-1.704h-4.446v-5.764h-.008zm10.367 0h1.011v5.756h-1.011v-4.197l-2.724 4.197h-1.011v-5.756h1.011v4.204l2.724-4.204zm7.148 0v5.756h-1.018v-2.237h-1.527l-1.392 2.237h-1.085l1.489-2.39a1.71 1.71 0 01-.868-.626 1.658 1.658 0 01-.307-.984 1.574 1.574 0 01.584-1.253 2.21 2.21 0 01.704-.365 3.19 3.19 0 01.95-.13h2.47v-.008zm-3.697 1.763c0 .117.022.233.06.343a.76.76 0 00.194.298c.09.088.202.16.345.212.134.058.306.08.501.08h1.579v-1.902h-1.452c-.217 0-.404.03-.561.087a1.178 1.178 0 00-.382.22.826.826 0 00-.217.312.965.965 0 00-.067.35zM62.11 31.784c0-.416.06-.81.188-1.166a2.79 2.79 0 01.539-.926 2.539 2.539 0 011.961-.845c.42 0 .793.073 1.13.226.337.153.614.357.853.62.232.262.412.568.54.925.127.357.186.743.186 1.166v.116c0 .416-.06.809-.187 1.166a2.666 2.666 0 01-.538.925 2.425 2.425 0 01-.846.612c-.33.146-.704.22-1.123.22a2.8 2.8 0 01-1.123-.22 2.358 2.358 0 01-.846-.612 2.788 2.788 0 01-.538-.925 3.439 3.439 0 01-.188-1.166v-.116h-.007zm1.019.123c0 .285.037.562.105.817.067.255.172.48.314.67a1.489 1.489 0 001.257.627c.277 0 .524-.059.734-.168.21-.117.39-.27.524-.46.135-.196.24-.414.314-.67a2.86 2.86 0 00.105-.816v-.116a3.13 3.13 0 00-.105-.809 2.186 2.186 0 00-.314-.677 1.586 1.586 0 00-.524-.467 1.5 1.5 0 00-.741-.175c-.277 0-.517.058-.726.175-.21.117-.382.27-.524.466a1.965 1.965 0 00-.314.678 3.153 3.153 0 00-.105.809v.116zM73.6 34.72h-1.01v-4.94h-2.725v4.94h-1.018v-5.756h4.746v5.756h.007zm4.08.102c-.412 0-.786-.065-1.116-.204a2.394 2.394 0 01-.853-.576 2.464 2.464 0 01-.546-.881 3.176 3.176 0 01-.195-1.115v-.226c0-.466.075-.889.217-1.253.142-.372.337-.678.576-.933a2.43 2.43 0 01.824-.575c.307-.132.629-.197.965-.197.42 0 .786.073 1.093.218.307.146.562.343.756.59.202.256.344.547.442.897.097.342.142.721.142 1.122v.444H75.98c.008.27.053.518.135.744.083.233.202.43.352.597a1.642 1.642 0 001.272.547c.36 0 .66-.073.906-.212.247-.138.464-.328.651-.56l.614.466a3.48 3.48 0 01-.344.415 2.088 2.088 0 01-.472.357c-.18.102-.389.19-.621.248a3.34 3.34 0 01-.793.087zm-.128-5.159a1.375 1.375 0 00-1.018.423 1.743 1.743 0 00-.337.517c-.09.204-.15.445-.18.707h2.965v-.073a2.506 2.506 0 00-.097-.568 1.445 1.445 0 00-.247-.503 1.365 1.365 0 00-.427-.364c-.172-.095-.404-.139-.659-.139zm8.593 2.245c0 .422-.052.808-.15 1.165a2.895 2.895 0 01-.441.926 2.05 2.05 0 01-.719.612 2.097 2.097 0 01-.973.219 2.63 2.63 0 01-.973-.168 2.032 2.032 0 01-.718-.496v2.77h-1.01v-7.972h.92l.052.641c.202-.24.442-.423.726-.554.285-.13.614-.19.988-.19.375 0 .704.074.988.212.285.139.524.343.726.598.195.255.345.568.442.925.097.357.15.758.15 1.202v.11h-.008zm-1.01-.117c0-.284-.03-.561-.09-.809a1.957 1.957 0 00-.292-.67 1.52 1.52 0 00-.494-.452 1.47 1.47 0 00-.719-.168c-.172 0-.329.022-.464.059a1.373 1.373 0 00-.68.422 1.92 1.92 0 00-.233.314v2.747a1.639 1.639 0 00.532.56c.112.066.24.125.381.161.143.037.3.058.48.058.276 0 .508-.058.71-.167.203-.117.367-.27.494-.46.135-.189.225-.415.292-.67.06-.255.09-.532.09-.816v-.109h-.007zm5.943 2.929a1.044 1.044 0 01-.09-.27 4.444 4.444 0 01-.052-.335c-.098.095-.203.19-.322.277a2.248 2.248 0 01-.846.38 2.386 2.386 0 01-.517.057c-.299 0-.576-.043-.823-.13a1.883 1.883 0 01-.629-.365 1.692 1.692 0 01-.404-.54 1.542 1.542 0 01-.142-.67c0-.306.06-.583.187-.816.127-.233.3-.43.532-.59.232-.16.509-.277.838-.364.33-.088.696-.124 1.1-.124h1.003v-.452c0-.342-.105-.62-.314-.823-.21-.204-.524-.306-.936-.306-.187 0-.36.021-.516.072a1.475 1.475 0 00-.404.197.976.976 0 00-.262.292.71.71 0 00-.09.342h-1.018c0-.204.052-.408.164-.612.113-.204.27-.386.472-.546a2.53 2.53 0 01.74-.394c.293-.102.615-.153.974-.153.322 0 .614.037.89.117.278.08.502.197.697.364.194.168.344.364.456.605.113.24.165.524.165.845v2.674c0 .197.015.401.053.612.037.212.09.401.157.554v.087h-1.063v.015zm-1.677-.75a1.734 1.734 0 00.95-.27c.136-.08.248-.168.345-.277a1.28 1.28 0 00.225-.32v-1.18h-.839c-.576 0-1.025.087-1.34.261-.314.175-.471.438-.471.795 0 .138.022.27.067.386.045.116.12.226.217.313a1.322 1.322 0 00.846.291zm8.421-4.212h-1.984v4.955h-1.01v-4.955h-1.946v-.802h4.94v.802zm.486 2.026c0-.416.06-.81.188-1.166a2.79 2.79 0 01.538-.926c.232-.262.517-.466.846-.619.33-.146.704-.226 1.115-.226.42 0 .794.073 1.131.226.337.153.613.357.853.62.232.262.412.568.539.925.127.357.187.743.187 1.166v.116c0 .416-.06.809-.187 1.166a2.657 2.657 0 01-.539.925 2.42 2.42 0 01-.846.612 2.746 2.746 0 01-1.123.22c-.411 0-.785-.074-1.122-.22a2.424 2.424 0 01-.846-.612 2.788 2.788 0 01-.539-.925 3.439 3.439 0 01-.187-1.166v-.116h-.008zm1.018.123c0 .285.038.562.105.817.068.255.172.48.315.67a1.487 1.487 0 001.257.627c.277 0 .524-.059.733-.168.21-.117.39-.27.524-.46.135-.196.24-.414.315-.67.067-.254.105-.524.105-.816v-.116a3.17 3.17 0 00-.105-.809 2.196 2.196 0 00-.315-.677 1.58 1.58 0 00-.524-.467 1.497 1.497 0 00-.741-.175c-.276 0-.516.058-.726.175a1.59 1.59 0 00-.523.466 1.965 1.965 0 00-.315.678 3.153 3.153 0 00-.105.809v.116zm10.629.001c0 .422-.052.808-.15 1.165a2.89 2.89 0 01-.441.926 2.049 2.049 0 01-.719.612 2.095 2.095 0 01-.973.219c-.374 0-.696-.059-.973-.168a2.041 2.041 0 01-.719-.496v2.77h-1.01v-7.972h.921l.052.641a2.06 2.06 0 01.726-.554c.285-.13.614-.19.988-.19s.704.074.988.212c.285.139.524.343.726.598.195.255.344.568.442.925.097.357.149.758.149 1.202v.11h-.007zm-1.01-.117c0-.284-.03-.561-.09-.809a1.953 1.953 0 00-.292-.67 1.52 1.52 0 00-.494-.452 1.491 1.491 0 00-.719-.168c-.172 0-.329.022-.464.059a1.38 1.38 0 00-.681.422c-.09.102-.165.204-.232.314v2.747a1.613 1.613 0 00.531.56c.113.066.24.125.382.161.142.037.3.058.479.058.277 0 .509-.058.711-.167a1.47 1.47 0 00.494-.46c.135-.189.225-.415.292-.67.06-.255.09-.532.09-.816v-.109h-.007zm2.028-.007c0-.416.06-.81.187-1.166.127-.357.307-.663.539-.926.232-.262.517-.466.846-.619a2.734 2.734 0 011.115-.226c.419 0 .794.073 1.13.226.337.153.614.357.854.62a2.8 2.8 0 01.539.925c.127.357.187.743.187 1.166v.116c0 .416-.06.809-.187 1.166-.128.357-.3.663-.539.925a2.429 2.429 0 01-.846.612 2.75 2.75 0 01-1.123.22 2.8 2.8 0 01-1.123-.22 2.425 2.425 0 01-.845-.612 2.787 2.787 0 01-.539-.925 3.421 3.421 0 01-.187-1.166v-.116h-.008zm1.011.123c0 .285.037.562.104.817.068.255.172.48.315.67a1.485 1.485 0 001.257.627c.277 0 .524-.059.734-.168.209-.117.389-.27.524-.46a2.35 2.35 0 00.314-.67 2.86 2.86 0 00.105-.816v-.116a3.17 3.17 0 00-.105-.809 2.194 2.194 0 00-.314-.677 1.524 1.524 0 00-.524-.467 1.502 1.502 0 00-.741-.175 1.46 1.46 0 00-.726.175 1.58 1.58 0 00-.524.466 1.962 1.962 0 00-.315.678 3.17 3.17 0 00-.104.809v.116zm5.733 2.813v-5.756h2.305c.375 0 .712.029 1.018.095.3.065.562.16.771.291.21.131.375.291.487.495.112.197.172.43.172.7 0 .27-.082.503-.247.721-.165.212-.404.38-.726.496.187.044.359.11.509.197.15.087.269.19.374.306a1.203 1.203 0 01.307.83c0 .27-.052.51-.157.714a1.369 1.369 0 01-.457.51 2.293 2.293 0 01-.718.306 4.167 4.167 0 01-.951.102h-2.687v-.007zm1.011-3.315h1.302c.951 0 1.422-.27 1.422-.809 0-.554-.479-.838-1.43-.838h-1.294v1.647zm0 .787v1.734h1.669c.419 0 .741-.073.95-.226a.745.745 0 00.315-.641.732.732 0 00-.315-.634c-.209-.153-.524-.226-.95-.226h-1.669v-.007zm8.248-5.217h1.055v6.907h3.923v-6.907h1.048v6.885h.838l-.097 2.726h-.944V34.72h-5.815v-7.745h-.008zm12.073.772h.15c.457 0 .883.073 1.28.226a2.97 2.97 0 011.707 1.625c.164.379.247.801.247 1.26 0 .46-.083.882-.247 1.268a3.03 3.03 0 01-.682.991 3.051 3.051 0 01-1.025.641 3.525 3.525 0 01-1.28.226h-.15v1.05h-1.01v-1.05h-.157a3.52 3.52 0 01-1.28-.226 3.066 3.066 0 01-1.026-.64 2.825 2.825 0 01-.681-.985 3.185 3.185 0 01-.247-1.267c0-.46.083-.882.247-1.268.165-.386.389-.714.681-.991a3.066 3.066 0 011.026-.641 3.52 3.52 0 011.28-.226h.157v-1.093h1.01v1.1zm-1.167.809c-.36 0-.674.058-.951.167-.277.11-.509.27-.696.474a2.048 2.048 0 00-.427.729 2.94 2.94 0 00-.142.947c0 .35.045.67.142.954.098.285.24.525.427.73.187.203.419.356.696.465.277.11.591.168.951.168h.157v-4.634h-.157zm1.167 0v4.634h.158c.351 0 .666-.058.943-.168.277-.109.509-.27.696-.473.187-.204.329-.445.426-.729.098-.284.15-.605.15-.954 0-.35-.052-.663-.15-.948a2.031 2.031 0 00-.426-.728 1.84 1.84 0 00-.696-.467 2.554 2.554 0 00-.943-.167h-.158zm9.11 4.138h-3.331l-.749 2.019h-1.085l3.039-7.746h.921L150 34.713h-1.078l-.763-2.019zm-3.017-.838h2.702l-1.354-3.62-1.348 3.62z" fill="#1C1C1C"/><path fill-rule="evenodd" clip-rule="evenodd" d="M27.066 26.34l-7.133-13.166L27.066 0l7.133 13.174L54.132 50h-14.26L27.067 26.34z" fill="#1C1C1C"/><path fill-rule="evenodd" clip-rule="evenodd" d="M12.8 26.348l14.266-.007L14.259 50H0l12.8-23.653z" fill="#1C1C1C"/><defs><linearGradient id="paint0_linear" x1="19.936" y1="24.998" x2="54.133" y2="24.998" gradientUnits="userSpaceOnUse"><stop stop-color="#ACFFB7"/><stop offset=".5" stop-color="#0BCAFF"/><stop offset="1" stop-color="#1F93FF"/></linearGradient></defs></svg>