<svg width="150" height="50" viewBox="0 0 150 50" fill="none" xmlns="http://www.w3.org/2000/svg">
<path d="M66.9311 19.6225H63.6003L62.8518 21.6408H61.7665L64.8054 13.8953H65.7261L68.7725 21.6408H67.6946L66.9311 19.6225ZM63.9147 18.7845H66.6168L65.2695 15.1631L63.9147 18.7845Z" fill="#1C1C1C"/>
<path d="M72.0509 20.9486C72.2305 20.9486 72.4027 20.9194 72.5673 20.8611C72.732 20.8028 72.8742 20.73 73.0015 20.628C73.1287 20.5259 73.226 20.4094 73.3084 20.2709C73.3907 20.1325 73.4356 19.9867 73.4506 19.8264H74.4012C74.3862 20.0815 74.3113 20.3292 74.1841 20.5551C74.0569 20.7883 73.8847 20.9923 73.6751 21.1672C73.4655 21.342 73.2185 21.4805 72.9416 21.5898C72.6646 21.6918 72.3652 21.7501 72.0509 21.7501C71.6092 21.7501 71.22 21.6699 70.8907 21.5169C70.5613 21.3639 70.2844 21.1526 70.0673 20.8903C69.8503 20.628 69.6856 20.3219 69.5808 19.9722C69.476 19.6224 69.4161 19.2581 69.4161 18.8719V18.6533C69.4161 18.2671 69.4685 17.9028 69.5808 17.5531C69.6931 17.2033 69.8503 16.8973 70.0673 16.635C70.2844 16.3726 70.5613 16.1613 70.8907 16.0083C71.22 15.8553 71.6018 15.7751 72.0509 15.7751C72.3952 15.7751 72.7096 15.8262 72.994 15.9354C73.2784 16.0447 73.5179 16.1905 73.7275 16.3726C73.9296 16.5621 74.0943 16.7807 74.214 17.0357C74.3338 17.2907 74.3937 17.5676 74.4087 17.8591H73.4506C73.4356 17.6842 73.3907 17.5166 73.3233 17.3636C73.256 17.2106 73.1587 17.0721 73.0389 16.9628C72.9191 16.8463 72.7769 16.7588 72.6122 16.686C72.4476 16.6204 72.2604 16.5839 72.0584 16.5839C71.744 16.5839 71.482 16.6422 71.2799 16.7661C71.0778 16.89 70.9057 17.043 70.7859 17.2397C70.6661 17.4365 70.5688 17.6551 70.5239 17.9028C70.4715 18.1505 70.4491 18.3983 70.4491 18.646V18.8719C70.4491 19.1269 70.4715 19.3747 70.5239 19.6224C70.5763 19.8702 70.6587 20.0888 70.7859 20.2855C70.9131 20.4822 71.0778 20.6352 71.2799 20.7591C71.4745 20.8903 71.7365 20.9486 72.0509 20.9486Z" fill="#1C1C1C"/>
<path d="M77.9117 20.9486C78.0913 20.9486 78.2635 20.9194 78.4281 20.8611C78.5928 20.8028 78.735 20.73 78.8623 20.628C78.9895 20.5259 79.0868 20.4094 79.1691 20.2709C79.2515 20.1325 79.2964 19.9867 79.3114 19.8264H80.2694C80.2545 20.0815 80.1796 20.3292 80.0524 20.5551C79.9251 20.781 79.753 20.9923 79.5434 21.1672C79.3338 21.342 79.0868 21.4805 78.8099 21.5898C78.5329 21.6918 78.2335 21.7501 77.9192 21.7501C77.4775 21.7501 77.0883 21.6699 76.759 21.5169C76.4296 21.3639 76.1527 21.1526 75.9356 20.8903C75.7186 20.628 75.5539 20.3219 75.4491 19.9722C75.3443 19.6224 75.2844 19.2581 75.2844 18.8719V18.6533C75.2844 18.2671 75.3368 17.9028 75.4491 17.5531C75.5614 17.2033 75.7186 16.8973 75.9356 16.635C76.1527 16.3726 76.4296 16.1613 76.759 16.0083C77.0883 15.8553 77.47 15.7751 77.9192 15.7751C78.2635 15.7751 78.5778 15.8262 78.8623 15.9354C79.1467 16.0447 79.3862 16.1905 79.5958 16.3726C79.7979 16.5621 79.9626 16.7807 80.0823 17.0357C80.2021 17.2907 80.262 17.5676 80.2769 17.8591H79.3188C79.3039 17.6842 79.259 17.5166 79.1916 17.3636C79.1242 17.2106 79.0269 17.0721 78.9072 16.9628C78.7874 16.8463 78.6452 16.7588 78.4805 16.686C78.3159 16.6204 78.1287 16.5839 77.9266 16.5839C77.6123 16.5839 77.3503 16.6422 77.1482 16.7661C76.9461 16.89 76.7739 17.043 76.6542 17.2397C76.5269 17.4365 76.4371 17.6551 76.3922 17.9028C76.3398 18.1505 76.3174 18.3983 76.3174 18.646V18.8719C76.3174 19.1269 76.3398 19.3747 76.3922 19.6224C76.4446 19.8702 76.5269 20.0888 76.6542 20.2855C76.7814 20.4822 76.9461 20.6352 77.1482 20.7591C77.3353 20.8903 77.5973 20.9486 77.9117 20.9486Z" fill="#1C1C1C"/>
<path d="M81.1302 18.7116C81.1302 18.2963 81.1901 17.9028 81.3174 17.5458C81.4446 17.1887 81.6243 16.8827 81.8563 16.6204C82.0883 16.3581 82.3728 16.154 82.7021 16.001C83.0314 15.8553 83.4057 15.7751 83.8174 15.7751C84.2365 15.7751 84.6108 15.848 84.9476 16.001C85.2844 16.1468 85.5614 16.3581 85.8009 16.6204C86.0329 16.8827 86.2126 17.1887 86.3398 17.5458C86.4671 17.9028 86.5269 18.289 86.5269 18.7116V18.8282C86.5269 19.2435 86.4671 19.637 86.3398 19.994C86.2126 20.3511 86.0404 20.6571 85.8009 20.9194C85.5689 21.1817 85.2844 21.3858 84.9551 21.5315C84.6258 21.6772 84.2515 21.7501 83.8323 21.7501C83.4207 21.7501 83.0464 21.6772 82.7096 21.5315C82.3802 21.3858 82.0958 21.1817 81.8638 20.9194C81.6317 20.6571 81.4521 20.3511 81.3249 19.994C81.1976 19.637 81.1377 19.2508 81.1377 18.8282V18.7116H81.1302ZM82.1482 18.8282C82.1482 19.1124 82.1856 19.3893 82.253 19.6443C82.3204 19.8993 82.4252 20.1252 82.5674 20.3146C82.7096 20.5114 82.8817 20.6644 83.0913 20.7737C83.3009 20.883 83.5479 20.9413 83.8249 20.9413C84.1018 20.9413 84.3488 20.883 84.5584 20.7737C84.768 20.6571 84.9476 20.5041 85.0823 20.3146C85.2171 20.1179 85.3219 19.8993 85.3967 19.6443C85.4716 19.3893 85.5015 19.1197 85.5015 18.8282V18.7116C85.5015 18.4274 85.4641 18.1578 85.3967 17.9028C85.3293 17.6478 85.2171 17.4219 85.0823 17.2252C84.9401 17.0284 84.768 16.8754 84.5584 16.7588C84.3488 16.6422 84.1018 16.5839 83.8174 16.5839C83.5404 16.5839 83.3009 16.6422 83.0913 16.7588C82.8817 16.8754 82.7096 17.0284 82.5674 17.2252C82.4252 17.4219 82.3204 17.6405 82.253 17.9028C82.1856 18.1578 82.1482 18.4274 82.1482 18.7116V18.8282Z" fill="#1C1C1C"/>
<path d="M87.8667 15.8918H88.8847V20.8467H91.6092V15.8918H92.6197V20.8467H93.3233L93.226 23.3605H92.3203V21.6555H87.8742V15.8918H87.8667Z" fill="#1C1C1C"/>
<path d="M98.2336 15.8918H99.244V21.6482H98.2336V17.4512L95.509 21.6482H94.4985V15.8918H95.509V20.0962L98.2336 15.8918Z" fill="#1C1C1C"/>
<path d="M104.521 21.6481C104.483 21.5752 104.454 21.4878 104.431 21.3785C104.409 21.2692 104.394 21.1599 104.379 21.0433C104.281 21.138 104.177 21.2327 104.057 21.3202C103.937 21.4076 103.81 21.4805 103.668 21.5461C103.525 21.6116 103.376 21.6626 103.211 21.6991C103.046 21.7355 102.874 21.7574 102.695 21.7574C102.395 21.7574 102.118 21.7136 101.871 21.6262C101.624 21.5388 101.415 21.4149 101.242 21.2619C101.07 21.1089 100.936 20.9267 100.838 20.7227C100.741 20.5187 100.696 20.2928 100.696 20.0523C100.696 19.7463 100.756 19.4694 100.883 19.2362C101.01 19.0031 101.183 18.8063 101.415 18.646C101.647 18.4857 101.924 18.3691 102.253 18.2817C102.582 18.2016 102.949 18.1578 103.353 18.1578H104.356V17.7061C104.356 17.3636 104.251 17.0867 104.042 16.8827C103.832 16.6787 103.518 16.5767 103.106 16.5767C102.919 16.5767 102.747 16.5985 102.59 16.6495C102.433 16.7005 102.298 16.7661 102.186 16.8463C102.073 16.9264 101.991 17.0284 101.924 17.1377C101.856 17.247 101.834 17.3636 101.834 17.4802H100.816C100.816 17.2762 100.868 17.0721 100.98 16.8681C101.093 16.6641 101.25 16.4819 101.452 16.3216C101.654 16.1613 101.901 16.0302 102.193 15.9282C102.485 15.8262 102.807 15.7751 103.166 15.7751C103.488 15.7751 103.78 15.8116 104.057 15.8917C104.334 15.9719 104.558 16.0885 104.753 16.2561C104.948 16.4236 105.097 16.6204 105.21 16.8608C105.322 17.1013 105.374 17.3855 105.374 17.7061V20.3802C105.374 20.577 105.389 20.781 105.427 20.9923C105.464 21.2036 105.516 21.393 105.584 21.5461V21.6335H104.521V21.6481ZM102.837 20.8976C103.016 20.8976 103.189 20.8757 103.353 20.8247C103.51 20.7737 103.66 20.7081 103.787 20.628C103.922 20.5478 104.034 20.4604 104.132 20.3511C104.229 20.2491 104.304 20.1398 104.356 20.0305V18.8501H103.518C102.942 18.8501 102.492 18.9375 102.178 19.1124C101.864 19.2872 101.707 19.5496 101.707 19.9066C101.707 20.045 101.729 20.1762 101.774 20.2928C101.819 20.4094 101.894 20.5187 101.991 20.6061C102.088 20.6935 102.208 20.7591 102.343 20.8101C102.492 20.8684 102.657 20.8976 102.837 20.8976Z" fill="#1C1C1C"/>
<path d="M107.043 15.8918H108.061V20.8467H110.786V15.8918H111.796V20.8467H112.5L112.403 23.3605H111.497V21.6555H107.051V15.8918H107.043Z" fill="#1C1C1C"/>
<path d="M117.41 15.8918H118.421V21.6482H117.41V17.4512L114.686 21.6482H113.675V15.8918H114.686V20.0962L117.41 15.8918Z" fill="#1C1C1C"/>
<path d="M124.558 15.8918V21.6482H123.54V19.4112H122.013L120.621 21.6482H119.536L121.025 19.2582C120.644 19.1271 120.359 18.9157 120.157 18.6316C119.955 18.3474 119.85 18.0195 119.85 17.6479C119.85 17.3929 119.903 17.1597 120 16.9484C120.097 16.7371 120.247 16.5476 120.434 16.3946C120.629 16.2416 120.861 16.1177 121.138 16.0303C121.415 15.9429 121.736 15.8991 122.088 15.8991H124.558V15.8918ZM120.861 17.6552C120.861 17.7718 120.883 17.8883 120.921 17.9976C120.958 18.1069 121.025 18.209 121.115 18.2964C121.205 18.3838 121.317 18.4567 121.46 18.5077C121.594 18.566 121.766 18.5879 121.961 18.5879H123.54V16.6861H122.088C121.871 16.6861 121.684 16.7152 121.527 16.7735C121.37 16.8318 121.242 16.9047 121.145 16.9921C121.048 17.0795 120.973 17.1888 120.928 17.3054C120.883 17.422 120.861 17.5386 120.861 17.6552Z" fill="#1C1C1C"/>
<path d="M62.1108 31.7836C62.1108 31.3683 62.1707 30.9748 62.298 30.6178C62.4252 30.2608 62.6049 29.9547 62.8369 29.6924C63.0689 29.4301 63.3534 29.2261 63.6827 29.0731C64.012 28.92 64.3863 28.8472 64.798 28.8472C65.2171 28.8472 65.5914 28.92 65.9282 29.0731C66.265 29.2261 66.542 29.4301 66.7815 29.6924C67.0135 29.9547 67.1932 30.2608 67.3204 30.6178C67.4477 30.9748 67.5075 31.361 67.5075 31.7836V31.9002C67.5075 32.3155 67.4477 32.709 67.3204 33.0661C67.1932 33.4231 67.021 33.7291 66.7815 33.9914C66.5495 34.2538 66.265 34.4578 65.9357 34.6035C65.6063 34.7492 65.2321 34.8221 64.8129 34.8221C64.4013 34.8221 64.027 34.7492 63.6902 34.6035C63.3534 34.4578 63.0764 34.2538 62.8444 33.9914C62.6123 33.7291 62.4327 33.4231 62.3055 33.0661C62.1782 32.709 62.1183 32.3228 62.1183 31.9002V31.7836H62.1108ZM63.1288 31.9075C63.1288 32.1917 63.1662 32.4686 63.2336 32.7236C63.301 32.9786 63.4058 33.2045 63.548 33.3939C63.6902 33.5907 63.8623 33.7437 64.0719 33.853C64.2815 33.9696 64.5285 34.0206 64.8054 34.0206C65.0824 34.0206 65.3294 33.9623 65.539 33.853C65.7486 33.7364 65.9282 33.5834 66.0629 33.3939C66.1977 33.1972 66.3025 32.9786 66.3773 32.7236C66.4522 32.4686 66.4821 32.199 66.4821 31.9075V31.7909C66.4821 31.5067 66.4447 31.2371 66.3773 30.9821C66.3099 30.7271 66.1977 30.5012 66.0629 30.3045C65.9207 30.1077 65.7486 29.9547 65.539 29.8381C65.3294 29.7215 65.0824 29.6633 64.798 29.6633C64.521 29.6633 64.2815 29.7215 64.0719 29.8381C63.8623 29.9547 63.6902 30.1077 63.548 30.3045C63.4058 30.5012 63.301 30.7198 63.2336 30.9821C63.1662 31.2371 63.1288 31.5067 63.1288 31.7909V31.9075Z" fill="#1C1C1C"/>
<path d="M73.6004 34.7202H72.5899V29.78H69.8654V34.7202H68.8474V28.9639H73.5929V34.7202H73.6004Z" fill="#1C1C1C"/>
<path d="M77.6796 34.8222C77.2679 34.8222 76.8936 34.7566 76.5643 34.6182C76.2275 34.4797 75.943 34.2903 75.711 34.0425C75.4715 33.7948 75.2918 33.5033 75.1646 33.1609C75.0373 32.8184 74.97 32.4468 74.97 32.046V31.8201C74.97 31.3538 75.0448 30.9312 75.187 30.5669C75.3293 30.1952 75.5239 29.8892 75.7634 29.6342C76.0029 29.3792 76.2799 29.1897 76.5867 29.0586C76.8936 28.9274 77.2155 28.8618 77.5523 28.8618C77.9715 28.8618 78.3382 28.9347 78.6451 29.0804C78.952 29.2261 79.2065 29.4229 79.4011 29.6706C79.6032 29.9256 79.7454 30.2171 79.8427 30.5669C79.94 30.9093 79.9849 31.2882 79.9849 31.689V32.1335H75.9804C75.9879 32.4031 76.0328 32.6508 76.1152 32.8767C76.1975 33.1099 76.3173 33.3066 76.467 33.4742C76.6167 33.6418 76.8038 33.7802 77.0134 33.8749C77.223 33.9769 77.47 34.0207 77.7394 34.0207C78.0987 34.0207 78.3981 33.9478 78.6451 33.8094C78.8921 33.6709 79.1092 33.4815 79.2963 33.2483L79.9101 33.7146C79.8128 33.8531 79.7005 33.9915 79.5658 34.13C79.431 34.2684 79.2739 34.385 79.0942 34.487C78.9146 34.589 78.705 34.6764 78.473 34.7347C78.2334 34.793 77.9715 34.8222 77.6796 34.8222ZM77.5523 29.6633C77.3502 29.6633 77.1631 29.6998 76.9909 29.7726C76.8188 29.8455 76.6691 29.9475 76.5343 30.0859C76.3996 30.2244 76.2873 30.3993 76.1975 30.6033C76.1077 30.8073 76.0478 31.0478 76.0179 31.3101H78.9819V31.2372C78.9745 31.0478 78.937 30.8583 78.8846 30.6689C78.8322 30.4794 78.7499 30.3118 78.6376 30.1661C78.5254 30.0204 78.3831 29.8965 78.211 29.8018C78.0388 29.7071 77.8068 29.6633 77.5523 29.6633Z" fill="#1C1C1C"/>
<path d="M86.1452 31.9076C86.1452 32.3302 86.0928 32.7164 85.9955 33.0734C85.8907 33.4305 85.7485 33.7365 85.5539 33.9988C85.3593 34.2611 85.1197 34.4651 84.8353 34.6109C84.5509 34.7566 84.229 34.8295 83.8623 34.8295C83.488 34.8295 83.1661 34.7712 82.8892 34.6619C82.6123 34.5453 82.3727 34.385 82.1706 34.1664V36.9353H81.1602V28.9638H82.0808L82.1332 29.605C82.3353 29.3646 82.5748 29.1824 82.8593 29.0513C83.1437 28.9201 83.473 28.8618 83.8473 28.8618C84.2215 28.8618 84.5509 28.9347 84.8353 29.0731C85.1197 29.2116 85.3593 29.4156 85.5613 29.6706C85.756 29.9256 85.9057 30.239 86.003 30.596C86.1003 30.953 86.1527 31.3538 86.1527 31.7983V31.9076H86.1452ZM85.1347 31.791C85.1347 31.5068 85.1048 31.2299 85.0449 30.9822C84.985 30.7272 84.8877 30.5086 84.753 30.3118C84.6182 30.1224 84.4536 29.9694 84.259 29.8601C84.0643 29.7508 83.8173 29.6925 83.5404 29.6925C83.3682 29.6925 83.2111 29.7143 83.0763 29.7508C82.9416 29.7872 82.8069 29.8455 82.6946 29.9184C82.5823 29.9912 82.485 30.0714 82.3952 30.1734C82.3054 30.2681 82.2305 30.3774 82.1631 30.4867V33.2337C82.2305 33.3503 82.3054 33.4523 82.3952 33.547C82.485 33.6418 82.5823 33.7292 82.6946 33.7948C82.8069 33.8604 82.9341 33.9187 83.0763 33.9551C83.2185 33.9915 83.3757 34.0134 83.5554 34.0134C83.8323 34.0134 84.0643 33.9551 84.2664 33.8458C84.4685 33.7292 84.6332 33.5762 84.7605 33.3867C84.8952 33.1973 84.985 32.9714 85.0524 32.7164C85.1123 32.4613 85.1422 32.1845 85.1422 31.9003V31.791H85.1347Z" fill="#1C1C1C"/>
<path d="M91.0778 34.7201C91.0404 34.6472 91.0104 34.5598 90.988 34.4505C90.9655 34.3412 90.9505 34.2319 90.9356 34.1153C90.8383 34.21 90.7335 34.3048 90.6137 34.3922C90.4939 34.4796 90.3667 34.5525 90.2245 34.6181C90.0823 34.6837 89.9326 34.7347 89.7679 34.7711C89.6032 34.8075 89.4311 34.8294 89.2514 34.8294C88.952 34.8294 88.6751 34.7857 88.4281 34.6982C88.1811 34.6108 87.9715 34.4869 87.7993 34.3339C87.6272 34.1809 87.4925 33.9987 87.3951 33.7947C87.2978 33.5907 87.2529 33.3648 87.2529 33.1243C87.2529 32.8183 87.3128 32.5414 87.4401 32.3083C87.5673 32.0751 87.7395 31.8784 87.9715 31.718C88.2035 31.5577 88.4805 31.4412 88.8098 31.3537C89.1392 31.2663 89.5059 31.2299 89.9101 31.2299H90.9131V30.7781C90.9131 30.4356 90.8083 30.1587 90.5987 29.9547C90.3892 29.7507 90.0748 29.6487 89.6631 29.6487C89.476 29.6487 89.3038 29.6705 89.1466 29.7215C88.9895 29.7726 88.8547 29.8381 88.7425 29.9183C88.6302 29.9984 88.5478 30.1004 88.4805 30.2097C88.4206 30.319 88.3907 30.4356 88.3907 30.5522H87.3727C87.3727 30.3482 87.4251 30.1442 87.5374 29.9401C87.6496 29.7361 87.8068 29.554 88.0089 29.3937C88.211 29.2334 88.458 29.1022 88.7499 29.0002C89.0418 28.8982 89.3637 28.8472 89.723 28.8472C90.0448 28.8472 90.3368 28.8836 90.6137 28.9638C90.8907 29.0439 91.1152 29.1605 91.3098 29.3281C91.5044 29.4957 91.6541 29.6924 91.7664 29.9329C91.8787 30.1733 91.9311 30.4575 91.9311 30.7781V33.4522C91.9311 33.649 91.946 33.853 91.9835 34.0643C92.0209 34.2756 92.0733 34.4651 92.1407 34.6181V34.7055H91.0778V34.7201ZM89.4011 33.9696C89.5808 33.9696 89.7529 33.9477 89.9176 33.8967C90.0748 33.8457 90.2245 33.7801 90.3517 33.7C90.4865 33.6198 90.5987 33.5324 90.696 33.4231C90.7933 33.3211 90.8682 33.2118 90.9206 33.1025V31.9221H90.0823C89.5059 31.9221 89.0568 32.0095 88.7425 32.1844C88.4281 32.3593 88.2709 32.6216 88.2709 32.9786C88.2709 33.1171 88.2933 33.2482 88.3383 33.3648C88.3832 33.4814 88.458 33.5907 88.5553 33.6781C88.6526 33.7656 88.7724 33.8311 88.9071 33.8821C89.0568 33.9404 89.214 33.9696 89.4011 33.9696Z" fill="#1C1C1C"/>
<path d="M97.8218 29.7581H95.8383V34.7129H94.8278V29.7581H92.8817V28.9565H97.8218V29.7581Z" fill="#1C1C1C"/>
<path d="M98.3083 31.7836C98.3083 31.3683 98.3682 30.9748 98.4955 30.6178C98.6227 30.2608 98.8024 29.9547 99.0344 29.6924C99.2664 29.4301 99.5509 29.2261 99.8802 29.0731C100.21 28.9273 100.584 28.8472 100.995 28.8472C101.415 28.8472 101.789 28.92 102.126 29.0731C102.463 29.2261 102.739 29.4301 102.979 29.6924C103.211 29.9547 103.391 30.2608 103.518 30.6178C103.645 30.9748 103.705 31.361 103.705 31.7836V31.9002C103.705 32.3155 103.645 32.709 103.518 33.0661C103.391 33.4231 103.219 33.7291 102.979 33.9914C102.747 34.2538 102.463 34.4578 102.133 34.6035C101.804 34.7492 101.43 34.8221 101.01 34.8221C100.599 34.8221 100.225 34.7492 99.8877 34.6035C99.5583 34.4578 99.2739 34.2538 99.0419 33.9914C98.8098 33.7291 98.6302 33.4231 98.503 33.0661C98.3757 32.709 98.3158 32.3228 98.3158 31.9002V31.7836H98.3083ZM99.3263 31.9075C99.3263 32.1917 99.3637 32.4686 99.4311 32.7236C99.4985 32.9786 99.6033 33.2045 99.7455 33.3939C99.8877 33.5907 100.06 33.7437 100.269 33.853C100.479 33.9696 100.726 34.0206 101.003 34.0206C101.28 34.0206 101.527 33.9623 101.736 33.853C101.946 33.7364 102.126 33.5834 102.26 33.3939C102.395 33.1972 102.5 32.9786 102.575 32.7236C102.642 32.4686 102.68 32.199 102.68 31.9075V31.7909C102.68 31.5067 102.642 31.2371 102.575 30.9821C102.507 30.7271 102.395 30.5012 102.26 30.3045C102.118 30.1077 101.946 29.9547 101.736 29.8381C101.527 29.7215 101.28 29.6633 100.995 29.6633C100.719 29.6633 100.479 29.7215 100.269 29.8381C100.06 29.9547 99.8877 30.1077 99.7455 30.3045C99.6033 30.5012 99.4985 30.7198 99.4311 30.9821C99.3637 31.2371 99.3263 31.5067 99.3263 31.7909V31.9075Z" fill="#1C1C1C"/>
<path d="M109.955 31.9076C109.955 32.3302 109.903 32.7164 109.805 33.0734C109.701 33.4305 109.558 33.7365 109.364 33.9988C109.169 34.2611 108.93 34.4651 108.645 34.6109C108.361 34.7566 108.039 34.8295 107.672 34.8295C107.298 34.8295 106.976 34.7712 106.699 34.6619C106.422 34.5453 106.183 34.385 105.98 34.1664V36.9353H104.97V28.9638H105.891L105.943 29.605C106.145 29.3646 106.385 29.1824 106.669 29.0513C106.954 28.9201 107.283 28.8618 107.657 28.8618C108.031 28.8618 108.361 28.9347 108.645 29.0731C108.93 29.2116 109.169 29.4156 109.371 29.6706C109.566 29.9256 109.715 30.239 109.813 30.596C109.91 30.953 109.962 31.3538 109.962 31.7983V31.9076H109.955ZM108.945 31.791C108.945 31.5068 108.915 31.2299 108.855 30.9822C108.795 30.7272 108.698 30.5086 108.563 30.3118C108.428 30.1224 108.263 29.9694 108.069 29.8601C107.867 29.7508 107.627 29.6925 107.35 29.6925C107.178 29.6925 107.021 29.7143 106.886 29.7508C106.751 29.7872 106.617 29.8455 106.504 29.9184C106.392 29.9912 106.295 30.0714 106.205 30.1734C106.115 30.2754 106.04 30.3774 105.973 30.4867V33.2337C106.04 33.3503 106.115 33.4523 106.205 33.547C106.295 33.6418 106.392 33.7292 106.504 33.7948C106.617 33.8604 106.744 33.9187 106.886 33.9551C107.028 33.9915 107.186 34.0134 107.365 34.0134C107.642 34.0134 107.874 33.9551 108.076 33.8458C108.278 33.7292 108.443 33.5762 108.57 33.3867C108.705 33.1973 108.795 32.9714 108.862 32.7164C108.922 32.4613 108.952 32.1845 108.952 31.9003V31.791H108.945Z" fill="#1C1C1C"/>
<path d="M110.973 31.7836C110.973 31.3683 111.033 30.9748 111.16 30.6178C111.287 30.2608 111.467 29.9547 111.699 29.6924C111.931 29.4301 112.216 29.2261 112.545 29.0731C112.874 28.9273 113.248 28.8472 113.66 28.8472C114.079 28.8472 114.454 28.92 114.79 29.0731C115.127 29.2261 115.404 29.4301 115.644 29.6924C115.876 29.9547 116.055 30.2608 116.183 30.6178C116.31 30.9748 116.37 31.361 116.37 31.7836V31.9002C116.37 32.3155 116.31 32.709 116.183 33.0661C116.055 33.4231 115.883 33.7291 115.644 33.9914C115.412 34.2538 115.127 34.4578 114.798 34.6035C114.469 34.7492 114.094 34.8221 113.675 34.8221C113.263 34.8221 112.889 34.7492 112.552 34.6035C112.223 34.4578 111.939 34.2538 111.707 33.9914C111.475 33.7291 111.295 33.4231 111.168 33.0661C111.04 32.709 110.981 32.3228 110.981 31.9002V31.7836H110.973ZM111.984 31.9075C111.984 32.1917 112.021 32.4686 112.088 32.7236C112.156 32.9786 112.26 33.2045 112.403 33.3939C112.545 33.5907 112.717 33.7437 112.927 33.853C113.136 33.9696 113.383 34.0206 113.66 34.0206C113.937 34.0206 114.184 33.9623 114.394 33.853C114.603 33.7364 114.783 33.5834 114.918 33.3939C115.052 33.1972 115.157 32.9786 115.232 32.7236C115.307 32.4686 115.337 32.199 115.337 31.9075V31.7909C115.337 31.5067 115.299 31.2371 115.232 30.9821C115.165 30.7271 115.052 30.5012 114.918 30.3045C114.783 30.1077 114.603 29.9547 114.394 29.8381C114.184 29.7215 113.937 29.6633 113.653 29.6633C113.376 29.6633 113.136 29.7215 112.927 29.8381C112.717 29.9547 112.545 30.1077 112.403 30.3045C112.26 30.5012 112.156 30.7198 112.088 30.9821C112.021 31.2371 111.984 31.5067 111.984 31.7909V31.9075Z" fill="#1C1C1C"/>
<path d="M117.717 34.7202V28.9639H120.022C120.397 28.9639 120.734 28.993 121.04 29.0586C121.34 29.1242 121.602 29.2189 121.811 29.3501C122.021 29.4812 122.186 29.6415 122.298 29.8455C122.41 30.0423 122.47 30.2754 122.47 30.545C122.47 30.8146 122.388 31.0478 122.223 31.2664C122.058 31.4777 121.819 31.6453 121.497 31.7619C121.684 31.8056 121.856 31.8712 122.006 31.9586C122.156 32.0461 122.275 32.1481 122.38 32.2647C122.485 32.3812 122.56 32.5124 122.612 32.6508C122.665 32.7893 122.687 32.9423 122.687 33.0953C122.687 33.3649 122.635 33.6054 122.53 33.8094C122.425 34.0134 122.275 34.181 122.073 34.3194C121.879 34.4506 121.639 34.5526 121.355 34.6255C121.078 34.6911 120.756 34.7275 120.404 34.7275H117.717V34.7202ZM118.728 31.4048H120.03C120.981 31.4048 121.452 31.1352 121.452 30.596C121.452 30.0423 120.973 29.7581 120.022 29.7581H118.728V31.4048ZM118.728 32.1918V33.926H120.397C120.816 33.926 121.138 33.8531 121.347 33.7001C121.557 33.5471 121.662 33.3358 121.662 33.0589C121.662 32.7893 121.557 32.5707 121.347 32.425C121.138 32.2719 120.823 32.1991 120.397 32.1991H118.728V32.1918Z" fill="#1C1C1C"/>
<path d="M126.976 26.9746H128.031V33.8822H131.954V26.9746H133.002V33.8604H133.84L133.743 36.5855H132.799V34.7202H126.984V26.9746H126.976Z" fill="#1C1C1C"/>
<path d="M139.049 27.747H139.199C139.656 27.747 140.082 27.8199 140.479 27.9729C140.876 28.1259 141.213 28.3372 141.504 28.6141C141.796 28.891 142.021 29.2189 142.186 29.5978C142.35 29.9767 142.433 30.3993 142.433 30.8583C142.433 31.3174 142.35 31.74 142.186 32.1262C142.021 32.5124 141.789 32.8403 141.504 33.1172C141.213 33.3941 140.876 33.6054 140.479 33.7584C140.082 33.9114 139.656 33.9843 139.199 33.9843H139.049V35.0335H138.039V33.9843H137.882C137.425 33.9843 136.998 33.9114 136.602 33.7584C136.205 33.6054 135.868 33.3941 135.576 33.1172C135.284 32.8476 135.06 32.5197 134.895 32.1335C134.731 31.7473 134.648 31.332 134.648 30.8656C134.648 30.4066 134.731 29.984 134.895 29.5978C135.06 29.2116 135.284 28.8837 135.576 28.6068C135.868 28.3299 136.205 28.1186 136.602 27.9656C136.998 27.8126 137.425 27.7397 137.882 27.7397H138.039V26.6467H139.049V27.747ZM137.882 28.5558C137.522 28.5558 137.208 28.6141 136.931 28.7234C136.654 28.8327 136.422 28.993 136.235 29.197C136.048 29.401 135.906 29.6415 135.808 29.9257C135.711 30.2098 135.666 30.5304 135.666 30.8729C135.666 31.2227 135.711 31.5433 135.808 31.8274C135.906 32.1116 136.048 32.3521 136.235 32.5561C136.422 32.7601 136.654 32.9131 136.931 33.0224C137.208 33.1317 137.522 33.19 137.882 33.19H138.039V28.5558H137.882ZM139.049 28.5558V33.19H139.207C139.558 33.19 139.873 33.1317 140.15 33.0224C140.427 32.9131 140.659 32.7528 140.846 32.5488C141.033 32.3448 141.175 32.1043 141.272 31.8202C141.37 31.536 141.422 31.2154 141.422 30.8656C141.422 30.5159 141.37 30.2026 141.272 29.9184C141.175 29.6342 141.033 29.3937 140.846 29.1897C140.659 28.9857 140.427 28.8327 140.15 28.7234C139.873 28.6141 139.558 28.5558 139.207 28.5558H139.049Z" fill="#1C1C1C"/>
<path d="M148.159 32.6945H144.828L144.079 34.7128H142.994L146.033 26.9673H146.954L150 34.7128H148.922L148.159 32.6945ZM145.142 31.8565H147.844L146.49 28.2351L145.142 31.8565Z" fill="#1C1C1C"/>
<path fill-rule="evenodd" clip-rule="evenodd" d="M27.0659 26.3407L19.9326 13.174L27.0659 0L34.1991 13.174L54.1317 50H39.8727L27.0659 26.3407Z" fill="url(#paint0_linear)"/>
<path fill-rule="evenodd" clip-rule="evenodd" d="M12.7994 26.3481L27.0659 26.3408L14.259 50.0001H0L12.7994 26.3481Z" fill="#1C1C1C"/>
<defs>
<linearGradient id="paint0_linear" x1="19.9363" y1="24.9983" x2="54.1328" y2="24.9983" gradientUnits="userSpaceOnUse">
<stop stop-color="#ACFFB7"/>
<stop offset="0.5" stop-color="#0BCAFF"/>
<stop offset="1" stop-color="#1F93FF"/>
</linearGradient>
</defs>
</svg>
