<svg width="302" height="208" fill="none" xmlns="http://www.w3.org/2000/svg"><path d="M282.737 167.719H301V1H1v205.999h261.029l20.708-39.28zM290.723 207H301v-19.544L290.723 207zm-98.624-103.088h-66.601" stroke="#fff" stroke-miterlimit="10"/><path d="M191.74 167.262h-33.668v-126.7h33.668m3.854 112.138h21.577a3.829 3.829 0 013.83 3.83v21.576c0 1.016-.403 1.99-1.122 2.708a3.826 3.826 0 01-2.708 1.122h-21.577a3.85 3.85 0 01-3.852-3.852v-21.532a3.853 3.853 0 013.852-3.852v0zm0-126.7h21.555a3.85 3.85 0 013.852 3.852V51.43a3.827 3.827 0 01-3.83 3.83h-21.577a3.857 3.857 0 01-3.559-2.378 3.863 3.863 0 01-.293-1.474V29.852A3.854 3.854 0 01195.594 26v0zm0 63.283h21.577a3.829 3.829 0 013.83 3.83v21.576a3.83 3.83 0 01-3.83 3.83h-21.577a3.853 3.853 0 01-3.852-3.852V93.135a3.854 3.854 0 013.852-3.852zM117.279 76.19a7.303 7.303 0 017.303 7.281v40.883a7.305 7.305 0 01-7.303 7.281H76.463a7.283 7.283 0 01-7.281-7.281V83.471a7.282 7.282 0 017.281-7.28h40.816z" stroke="#fff" stroke-miterlimit="10"/><path d="M81.072 102.242l14.474 16.589 18.392-29.86" stroke="#fff" stroke-miterlimit="10" stroke-linecap="round"/></svg>