<svg width="24" height="24" fill="none" xmlns="http://www.w3.org/2000/svg"><path d="M19.995 6.688a4.3 4.3 0 001.887-2.374 8.58 8.58 0 01-2.725 1.041 4.3 4.3 0 00-7.316 3.915 12.184 12.184 0 01-8.844-4.484 4.3 4.3 0 001.328 5.73 4.275 4.275 0 01-1.943-.538v.054a4.294 4.294 0 003.443 4.208 4.298 4.298 0 01-1.938.074 4.3 4.3 0 004.009 2.98 8.61 8.61 0 01-5.33 1.837c-.343 0-.685-.019-1.025-.059A12.146 12.146 0 008.12 21 12.127 12.127 0 0020.33 8.79c0-.187-.004-.372-.013-.556a8.72 8.72 0 002.142-2.222 8.578 8.578 0 01-2.464.676z" fill="#fff"/></svg>